<svg version="1.0" xmlns="http://www.w3.org/2000/svg"  width="1500.000000pt" height="1500.000000pt" viewBox="0 0 1500.000000 1500.000000"  preserveAspectRatio="xMidYMid meet"> <g transform="translate(0.000000,1500.000000) scale(0.100000,-0.100000)" fill="#000000" stroke="none"> <path d="M4440 11849 c-91 -5 -195 -15 -231 -24 -37 -8 -94 -15 -127 -15 -41 0 -63 -5 -72 -15 -8 -10 -31 -15 -67 -15 -30 0 -64 -5 -75 -11 -26 -14 -116 -38 -181 -48 -26 -4 -53 -13 -59 -19 -7 -7 -23 -12 -38 -12 -14 0 -52 -14 -85 -30 -33 -16 -70 -30 -81 -30 -12 0 -27 -7 -34 -15 -7 -8 -20 -15 -29 -15 -10 0 -44 -13 -76 -30 -32 -16 -66 -30 -76 -30 -9 0 -22 -7 -29 -15 -7 -8 -18 -15 -26 -15 -7 0 -33 -13 -57 -30 -25 -16 -49 -30 -55 -30 -5 0 -15 -7 -22 -15 -7 -8 -20 -15 -28 -15 -17 0 -123 -67 -214 -137 -31 -24 -60 -43 -65 -43 -5 0 -44 -31 -87 -70 -43 -38 -86 -72 -97 -75 -10 -4 -19 -10 -19 -15 0 -4 -37 -43 -81 -86 -45 -44 -91 -90 -103 -103 -11 -13 -47 -51 -80 -85 -32 -34 -61 -68 -65 -78 -7 -18 -51 -74 -93 -120 -16 -16 -28 -35 -28 -42 0 -7 -9 -21 -19 -30 -11 -10 -27 -32 -36 -49 -9 -18 -25 -45 -35 -62 -11 -16 -24 -39 -29 -50 -5 -11 -20 -36 -33 -55 -12 -19 -32 -53 -43 -75 -11 -22 -32 -57 -47 -79 -40 -55 -39 -117 1 -157 16 -16 36 -29 44 -29 8 0 20 -7 27 -15 9 -10 32 -15 75 -15 43 0 66 5 75 15 7 8 18 15 24 15 30 1 79 70 121 170 8 19 18 37 88 142 31 48 57 91 57 96 0 6 7 12 15 16 8 3 15 12 15 20 0 8 14 30 31 48 17 18 55 65 84 103 30 39 74 92 99 119 25 27 53 60 61 73 9 13 21 23 27 23 6 0 40 29 74 65 35 35 82 76 105 91 23 14 63 46 88 70 25 24 49 44 53 44 4 0 27 14 51 30 25 17 48 30 52 30 4 0 24 14 45 30 21 17 42 30 47 30 5 0 27 13 49 30 21 16 48 30 58 30 10 0 41 14 68 30 26 17 53 30 59 30 10 0 25 6 96 44 17 9 38 16 46 16 8 0 20 7 27 15 7 8 23 15 35 15 12 0 28 7 35 15 7 9 29 15 54 15 23 0 51 7 62 15 10 8 30 15 44 15 14 0 36 7 50 15 14 8 39 14 56 15 16 0 39 7 50 15 11 9 42 14 77 15 32 0 68 6 80 12 44 25 248 42 507 42 295 1 655 -20 685 -41 11 -8 47 -13 88 -13 38 0 81 -6 95 -13 47 -24 185 -69 227 -74 22 -2 54 -10 70 -18 76 -34 104 -45 122 -45 10 0 27 -7 37 -15 11 -8 36 -15 57 -15 20 0 42 -7 49 -15 7 -8 22 -15 34 -15 21 0 56 -20 84 -47 7 -7 21 -13 30 -13 30 0 116 -33 160 -62 24 -15 46 -28 50 -28 10 0 136 -64 142 -72 3 -4 17 -12 30 -18 53 -23 160 -98 160 -112 0 -4 11 -8 24 -8 13 0 26 -3 28 -7 2 -5 22 -21 46 -37 23 -16 42 -33 42 -37 0 -5 6 -9 13 -9 6 0 27 -14 46 -30 18 -17 38 -30 42 -30 5 0 17 -8 27 -17 10 -10 40 -36 67 -58 27 -22 68 -56 90 -75 41 -36 269 -264 316 -316 62 -69 72 -74 147 -74 62 0 76 4 115 30 25 16 52 42 62 56 23 35 259 274 270 274 5 0 27 18 49 39 97 94 152 141 164 141 7 0 25 11 40 25 63 57 110 92 152 113 25 13 80 47 123 77 43 30 85 55 93 55 8 0 14 4 14 9 0 11 80 51 103 51 9 0 17 4 17 9 0 9 100 61 116 61 4 0 22 11 40 25 18 14 46 25 61 25 16 0 38 7 49 15 10 8 27 15 37 15 10 0 20 7 23 15 4 8 18 15 34 15 15 0 33 7 40 15 7 8 25 15 40 15 15 0 33 7 40 15 7 8 20 15 30 15 9 0 48 12 86 26 38 14 91 30 119 35 27 5 61 13 75 18 14 5 50 16 80 24 30 8 75 20 100 27 25 7 74 15 110 19 36 4 76 13 90 19 105 48 1083 45 1157 -3 12 -8 44 -15 72 -15 27 0 62 -7 77 -15 16 -8 43 -15 59 -15 27 -1 83 -18 158 -48 16 -7 45 -12 66 -12 23 0 59 -12 92 -30 30 -16 62 -30 72 -30 10 0 20 -7 23 -15 4 -8 18 -15 34 -15 15 0 33 -7 40 -15 7 -8 19 -15 26 -15 8 0 36 -13 62 -30 27 -16 57 -30 67 -30 9 0 34 -13 55 -30 21 -16 45 -30 53 -30 8 0 17 -7 21 -15 3 -8 10 -15 15 -15 17 0 238 -156 282 -199 9 -9 52 -47 95 -86 43 -38 99 -92 124 -120 25 -27 66 -71 93 -98 26 -28 47 -52 47 -54 0 -6 60 -84 74 -98 26 -24 90 -115 105 -152 6 -11 14 -24 20 -27 10 -7 62 -80 74 -106 4 -8 18 -33 32 -55 13 -22 24 -48 25 -58 0 -10 7 -20 15 -23 8 -4 15 -17 15 -29 0 -13 4 -26 9 -30 6 -3 21 -30 35 -60 14 -29 31 -57 36 -60 6 -3 10 -17 10 -30 0 -13 6 -36 14 -52 20 -39 43 -102 50 -135 4 -16 11 -28 16 -28 6 0 10 -17 10 -39 0 -22 6 -44 15 -51 8 -7 15 -27 15 -44 0 -17 6 -51 14 -76 8 -25 21 -68 30 -96 9 -30 16 -87 16 -135 1 -46 7 -120 15 -164 17 -94 19 -311 4 -445 -6 -52 -14 -153 -19 -225 -5 -83 -16 -159 -30 -210 -13 -44 -25 -98 -28 -120 -2 -22 -11 -49 -18 -60 -8 -11 -14 -35 -14 -55 0 -19 -7 -44 -15 -54 -8 -11 -15 -34 -15 -51 0 -17 -4 -35 -9 -40 -12 -13 -51 -124 -51 -146 0 -10 -6 -30 -14 -46 -8 -15 -22 -46 -31 -68 -9 -22 -23 -53 -30 -70 -58 -127 -75 -167 -75 -179 0 -8 -5 -18 -11 -21 -5 -4 -15 -17 -20 -28 -5 -12 -21 -41 -34 -64 -52 -90 -75 -130 -100 -178 -27 -53 -47 -87 -55 -95 -13 -13 -80 -116 -80 -124 0 -4 -13 -25 -30 -46 -16 -21 -30 -42 -30 -48 0 -6 -4 -12 -9 -14 -9 -3 -111 -136 -111 -144 0 -9 -45 -69 -61 -81 -9 -6 -33 -38 -55 -70 -21 -32 -66 -87 -100 -123 -33 -36 -69 -78 -80 -94 -10 -17 -41 -55 -69 -85 -91 -101 -545 -551 -555 -551 -6 0 -10 -6 -10 -14 0 -8 -9 -17 -19 -21 -11 -3 -58 -44 -105 -90 -47 -47 -91 -85 -97 -85 -6 0 -43 -28 -84 -62 -122 -105 -166 -141 -270 -220 -55 -41 -106 -82 -114 -91 -7 -10 -19 -17 -25 -17 -7 0 -25 -13 -41 -30 -16 -16 -34 -30 -42 -30 -7 0 -28 -13 -46 -30 -19 -16 -37 -30 -40 -30 -3 0 -18 -11 -33 -25 -25 -23 -170 -125 -179 -125 -2 0 -19 -13 -37 -30 -18 -16 -36 -30 -40 -30 -4 0 -27 -13 -51 -30 -25 -16 -50 -30 -56 -30 -6 0 -11 -4 -11 -9 0 -6 -11 -16 -24 -23 -14 -7 -57 -35 -98 -63 -40 -27 -89 -57 -109 -66 -20 -10 -40 -22 -44 -29 -4 -6 -17 -16 -28 -21 -35 -16 -66 -35 -85 -52 -10 -9 -33 -23 -52 -32 -39 -17 -56 -27 -115 -65 -22 -15 -47 -30 -55 -33 -8 -4 -28 -16 -45 -27 -16 -11 -39 -24 -50 -30 -11 -6 -33 -19 -50 -30 -16 -11 -36 -22 -42 -25 -39 -16 -43 -18 -120 -68 -24 -15 -50 -27 -59 -27 -9 0 -33 -13 -53 -28 -20 -15 -56 -38 -81 -50 -49 -25 -63 -33 -128 -74 -24 -16 -49 -28 -57 -28 -8 0 -36 -13 -62 -30 -26 -16 -52 -30 -59 -30 -6 0 -17 -7 -24 -15 -7 -8 -21 -15 -32 -15 -10 0 -21 -7 -24 -15 -4 -8 -11 -15 -16 -15 -10 0 -72 -26 -98 -40 -8 -5 -51 -28 -95 -50 -98 -51 -110 -57 -132 -70 -10 -6 -25 -13 -33 -16 -8 -3 -28 -11 -45 -19 -16 -7 -37 -16 -45 -19 -8 -4 -35 -17 -59 -31 -24 -14 -49 -25 -55 -25 -6 0 -31 -14 -56 -30 -25 -16 -57 -30 -72 -30 -15 0 -29 -4 -33 -10 -5 -8 -66 -39 -200 -101 -27 -12 -52 -25 -55 -29 -9 -11 -95 -39 -140 -45 -25 -4 -55 -11 -66 -17 -60 -28 -265 21 -384 93 -8 5 -22 12 -30 15 -8 3 -27 12 -42 20 -14 8 -31 14 -37 14 -6 0 -30 14 -53 30 -22 17 -53 30 -67 30 -15 0 -42 11 -61 24 -19 13 -60 34 -90 46 -30 13 -62 29 -70 35 -22 17 -86 45 -103 45 -8 0 -20 7 -27 15 -7 8 -21 15 -31 15 -10 0 -21 4 -24 10 -3 5 -25 19 -48 30 -23 11 -64 34 -92 50 -27 16 -60 29 -71 29 -12 1 -27 8 -34 16 -7 8 -17 15 -22 15 -6 0 -30 14 -55 30 -24 17 -51 30 -60 30 -8 0 -32 13 -53 30 -21 17 -49 30 -63 30 -14 0 -29 5 -32 10 -4 6 -29 23 -57 38 -73 39 -88 48 -101 61 -6 6 -20 11 -32 11 -11 0 -31 12 -44 26 -13 14 -37 28 -52 31 -16 3 -34 12 -40 19 -6 8 -17 14 -24 14 -7 0 -29 14 -50 30 -21 17 -43 30 -50 30 -7 0 -15 7 -19 15 -3 8 -16 15 -30 15 -14 0 -28 5 -31 11 -4 5 -17 15 -28 20 -12 5 -35 18 -52 29 -16 11 -37 23 -45 27 -8 3 -33 18 -55 32 -65 42 -79 50 -104 61 -14 6 -45 26 -70 44 -25 18 -58 39 -73 47 -46 24 -152 91 -189 121 -20 15 -40 28 -44 28 -4 0 -24 14 -45 30 -21 17 -41 30 -44 30 -3 0 -25 14 -48 30 -22 17 -46 30 -53 30 -6 0 -24 13 -40 30 -16 17 -33 30 -38 30 -5 0 -26 13 -47 30 -21 16 -41 30 -45 30 -4 0 -24 13 -45 30 -21 16 -42 30 -47 30 -4 0 -28 20 -53 45 -25 24 -54 44 -64 45 -11 0 -27 6 -35 13 -9 7 -35 21 -58 31 l-42 19 -56 -28 c-87 -42 -107 -65 -108 -125 -2 -49 0 -53 43 -92 86 -78 98 -88 104 -88 3 0 25 -13 49 -30 25 -16 50 -30 55 -30 6 0 15 -6 19 -14 4 -7 38 -34 74 -60 36 -25 72 -52 79 -61 7 -8 19 -15 27 -15 8 0 32 -13 53 -30 21 -16 42 -30 47 -30 5 0 22 -13 38 -30 16 -16 34 -30 39 -30 6 0 51 -27 99 -60 49 -33 91 -60 94 -60 3 0 22 -13 42 -28 20 -16 57 -39 84 -51 26 -13 47 -27 47 -32 0 -5 4 -9 9 -9 6 0 30 -13 54 -30 25 -16 49 -30 55 -30 5 0 15 -7 22 -15 7 -8 19 -15 27 -15 9 0 31 -13 50 -30 18 -16 40 -30 47 -30 7 0 32 -13 54 -30 23 -16 44 -30 46 -30 3 0 25 -13 49 -30 25 -16 53 -30 62 -30 9 0 34 -13 55 -30 21 -17 42 -30 48 -30 5 0 15 -7 22 -15 7 -8 21 -15 32 -15 10 0 21 -7 24 -15 4 -8 13 -15 21 -15 20 0 42 -12 222 -115 63 -36 119 -65 125 -65 6 0 20 -7 30 -15 11 -8 27 -15 37 -15 9 0 19 -7 23 -15 3 -8 15 -15 26 -15 11 0 23 -7 26 -15 4 -8 17 -15 29 -15 13 0 26 -4 29 -9 8 -13 89 -51 109 -51 9 0 19 -4 22 -10 3 -5 30 -21 58 -35 58 -29 73 -36 102 -53 11 -7 26 -14 33 -17 6 -3 18 -7 25 -10 6 -3 30 -16 52 -30 22 -13 47 -24 55 -25 18 0 140 -60 158 -77 7 -7 21 -13 31 -13 9 0 22 -5 29 -12 11 -11 63 -33 107 -45 18 -5 70 -28 115 -52 117 -61 204 -101 220 -101 11 0 46 -13 77 -30 49 -26 66 -30 139 -30 73 0 92 4 142 29 52 26 104 50 142 65 8 3 33 17 55 31 22 13 50 24 61 25 12 0 27 7 34 15 7 8 20 15 29 15 9 0 22 5 29 12 12 12 69 35 109 45 12 3 28 11 34 19 6 8 18 14 25 14 16 0 92 39 100 51 3 5 13 9 23 9 10 0 24 7 31 15 7 8 22 15 33 15 23 0 104 37 113 51 3 5 13 9 23 9 10 0 24 7 31 15 7 8 19 15 27 15 7 0 49 20 93 45 44 25 87 45 96 45 9 0 39 13 66 30 26 16 55 30 63 30 7 0 17 5 20 11 4 5 17 14 28 20 12 5 29 13 37 18 8 4 49 25 90 45 41 20 102 52 135 71 33 19 101 54 150 79 124 63 196 104 221 127 11 10 31 19 43 19 13 0 40 13 60 28 20 16 43 32 51 35 8 4 29 16 45 27 17 11 40 24 53 30 13 5 38 21 56 35 18 14 38 25 44 25 6 0 39 19 74 42 74 50 88 59 148 89 25 12 61 35 81 51 20 15 40 28 44 28 4 0 24 13 44 28 20 16 43 32 51 35 8 4 29 16 45 27 17 11 37 23 45 27 8 3 40 25 70 47 66 49 88 63 117 75 11 6 24 14 27 20 9 13 94 71 106 71 5 0 13 6 17 14 4 7 38 34 74 59 81 55 224 158 264 191 103 83 143 114 179 140 23 16 43 32 44 37 2 5 9 9 15 9 7 0 28 17 47 36 19 20 51 46 70 59 19 12 64 50 99 84 35 33 66 61 70 61 3 0 33 26 66 56 33 31 80 72 103 92 24 20 76 69 115 109 39 40 77 73 83 73 6 0 24 16 39 37 16 20 93 102 172 182 222 226 256 263 279 297 23 33 47 62 126 148 26 28 48 56 48 62 0 6 7 17 16 24 17 15 104 127 104 136 0 3 34 50 75 104 41 54 75 103 75 108 0 6 7 12 15 16 8 3 15 12 15 20 0 17 58 107 77 119 7 4 13 15 13 24 0 8 14 32 30 53 16 21 30 46 30 55 0 10 11 32 24 49 12 17 32 51 43 76 11 25 27 51 36 59 10 7 17 24 17 37 0 12 4 25 9 29 9 5 35 55 69 135 8 19 19 42 24 50 4 8 11 22 14 30 3 8 12 29 19 45 8 17 25 56 39 87 15 31 26 63 26 70 0 8 9 31 20 53 11 22 20 48 20 60 0 11 7 29 15 39 8 11 15 33 15 49 0 16 7 41 15 55 21 39 45 119 45 150 0 16 5 33 12 40 7 7 15 36 19 64 19 157 32 235 42 253 5 11 12 83 14 160 1 77 8 177 14 221 7 45 9 104 5 130 -4 27 -10 129 -15 227 -5 114 -12 182 -19 189 -7 7 -12 31 -12 55 0 23 -7 68 -15 100 -8 31 -15 76 -15 99 0 25 -6 47 -15 54 -8 7 -15 27 -15 46 0 31 -27 117 -50 156 -6 10 -10 28 -10 41 0 13 -7 32 -15 43 -8 10 -15 29 -15 40 0 12 -7 27 -15 34 -8 7 -15 22 -15 34 0 12 -7 31 -15 42 -8 10 -15 29 -15 40 0 12 -7 27 -15 34 -8 7 -15 21 -15 31 0 10 -13 41 -30 69 -16 28 -30 55 -30 59 0 5 -7 14 -15 21 -8 7 -15 21 -15 32 0 11 -13 37 -30 58 -16 21 -30 42 -30 47 0 6 -13 29 -30 51 -16 23 -30 45 -30 49 0 5 -14 22 -30 40 -17 18 -30 39 -30 48 0 9 -18 36 -39 58 -22 23 -57 68 -78 99 -21 31 -74 94 -119 140 -44 46 -86 94 -93 106 -6 12 -17 22 -23 22 -6 0 -37 27 -68 60 -31 33 -61 60 -66 60 -5 0 -17 8 -25 18 -32 35 -133 118 -163 132 -17 9 -61 39 -98 68 -36 29 -68 52 -71 52 -3 0 -26 14 -50 30 -25 17 -51 30 -59 30 -8 0 -19 5 -24 10 -16 16 -175 99 -254 132 -14 6 -41 18 -60 26 -19 9 -48 21 -65 28 -16 7 -70 27 -120 44 -49 18 -103 38 -118 46 -16 8 -42 14 -58 14 -16 0 -46 7 -66 15 -19 8 -50 15 -67 15 -18 0 -37 5 -43 11 -6 6 -39 13 -74 16 -35 3 -70 11 -78 17 -8 6 -46 14 -85 18 -39 4 -102 12 -141 19 -97 17 -804 17 -900 0 -38 -7 -101 -15 -140 -18 -38 -3 -79 -12 -90 -19 -11 -8 -43 -14 -71 -14 -28 0 -74 -7 -100 -15 -82 -24 -179 -45 -210 -45 -17 0 -39 -7 -50 -15 -10 -8 -31 -15 -46 -15 -26 0 -69 -15 -131 -46 -16 -8 -41 -14 -55 -14 -15 -1 -38 -7 -52 -15 -14 -8 -35 -14 -46 -15 -12 0 -27 -7 -34 -15 -7 -8 -22 -15 -34 -15 -12 0 -31 -7 -42 -15 -10 -8 -31 -15 -45 -15 -15 0 -32 -7 -39 -15 -7 -8 -23 -15 -36 -15 -12 0 -26 -5 -29 -11 -6 -9 -89 -50 -193 -94 -23 -10 -47 -24 -53 -32 -6 -7 -18 -13 -25 -13 -8 0 -33 -12 -57 -27 -63 -41 -80 -51 -104 -62 -11 -5 -24 -15 -28 -20 -3 -6 -12 -11 -20 -11 -13 0 -114 -65 -185 -120 -19 -15 -42 -29 -50 -33 -8 -3 -41 -27 -74 -54 -32 -26 -68 -53 -79 -60 -11 -6 -22 -15 -26 -20 -3 -5 -31 -28 -61 -52 -58 -45 -120 -101 -232 -207 -36 -35 -71 -64 -77 -64 -6 0 -16 12 -22 27 -6 15 -14 30 -19 33 -13 8 -182 162 -211 193 -15 15 -30 27 -34 27 -4 0 -25 15 -45 33 -95 81 -231 180 -318 232 -9 6 -33 22 -53 38 -20 15 -42 27 -49 27 -6 0 -17 6 -25 13 -18 17 -107 70 -123 73 -8 1 -22 10 -31 18 -10 9 -25 16 -34 16 -9 0 -17 4 -17 9 0 11 -80 51 -102 51 -9 0 -21 7 -28 15 -7 8 -19 15 -26 15 -8 0 -40 14 -71 30 -31 17 -61 30 -68 30 -7 0 -18 6 -24 14 -6 7 -28 16 -49 20 -20 3 -59 17 -87 31 -27 14 -59 25 -70 25 -11 0 -29 6 -40 14 -11 7 -33 16 -50 18 -16 3 -55 16 -85 28 -30 12 -73 25 -95 29 -23 4 -47 11 -55 16 -12 7 -89 24 -200 42 -19 3 -40 9 -46 14 -6 5 -49 12 -95 16 -54 4 -87 11 -92 19 -5 9 -27 14 -59 14 -28 0 -92 7 -142 15 -81 13 -472 37 -536 34 -14 -1 -99 -6 -190 -10z m225 -91 c17 -1 53 0 80 2 28 2 106 1 173 -1 103 -4 126 -7 137 -22 15 -21 24 -21 39 -3 14 18 86 10 86 -10 0 -20 47 -17 59 3 9 17 11 17 30 -1 18 -17 21 -17 43 -2 26 19 51 21 27 3 -8 -7 -18 -22 -21 -34 -5 -17 -2 -20 11 -16 9 3 24 15 33 27 l16 20 13 -27 c12 -27 37 -35 54 -18 6 6 25 4 50 -5 22 -7 50 -14 61 -14 12 0 24 -7 28 -15 3 -8 17 -15 31 -15 14 0 25 -4 25 -10 0 -5 5 -10 12 -10 9 0 9 3 0 12 -7 7 -12 16 -12 20 0 12 38 10 45 -2 3 -5 25 -10 48 -10 23 0 51 -7 61 -15 11 -8 28 -15 37 -15 10 0 30 -5 44 -10 21 -8 25 -13 17 -23 -9 -10 1 -12 51 -9 42 2 74 -2 100 -12 43 -19 49 -36 12 -36 -16 0 -25 -6 -25 -15 0 -19 34 -20 50 -1 15 19 40 9 40 -15 0 -16 3 -18 19 -9 28 15 61 12 67 -5 4 -10 13 -13 25 -10 13 4 19 1 19 -8 0 -19 23 -28 41 -17 17 11 60 -26 52 -46 -7 -18 6 -18 26 0 13 12 20 12 40 1 l24 -12 -23 -13 c-33 -18 -10 -27 61 -24 47 2 62 -1 72 -15 6 -10 26 -25 43 -34 17 -9 36 -23 43 -31 8 -9 27 -16 43 -16 37 0 86 -36 103 -77 16 -38 55 -47 55 -13 0 29 15 24 39 -12 11 -18 21 -29 21 -24 0 4 11 1 25 -8 13 -9 29 -16 34 -16 19 0 61 -51 61 -75 0 -13 6 -28 14 -32 8 -5 19 -19 24 -33 9 -22 11 -23 17 -7 5 11 1 25 -10 37 -10 11 -15 26 -11 35 9 24 43 2 63 -41 9 -19 20 -34 24 -34 5 0 16 -9 26 -19 10 -11 29 -21 43 -23 17 -2 31 -15 43 -40 11 -23 26 -38 37 -38 10 0 20 -7 24 -15 3 -8 12 -15 19 -15 8 0 20 -7 27 -15 7 -8 27 -19 44 -23 33 -9 38 -27 7 -27 -11 0 -23 -3 -27 -7 -4 -5 1 -8 11 -8 10 0 23 -8 30 -17 7 -9 26 -17 41 -18 25 0 29 -4 29 -27 0 -37 19 -55 39 -39 13 11 20 9 42 -8 19 -15 41 -21 80 -21 45 0 58 5 96 35 24 20 55 41 70 47 15 7 32 25 37 40 6 18 17 28 29 28 11 0 25 6 31 14 7 8 27 18 44 22 42 9 78 54 42 54 -7 0 -18 -8 -24 -17 -5 -10 -13 -15 -17 -11 -4 4 1 19 10 33 12 19 23 24 37 20 32 -10 59 4 59 31 0 18 5 24 20 24 12 0 37 16 57 35 20 19 42 35 50 35 8 0 33 19 56 43 24 23 58 55 77 70 29 25 35 26 43 12 7 -13 12 -14 23 -4 8 6 14 18 14 25 0 8 7 14 16 14 9 0 34 15 57 34 30 24 58 36 96 42 30 5 56 15 59 22 2 6 -3 12 -12 12 -9 0 -16 4 -16 10 0 10 52 40 71 40 6 0 23 12 38 28 22 24 26 25 29 9 2 -10 -2 -24 -8 -32 -10 -12 -9 -15 5 -15 10 0 35 18 55 40 20 22 43 40 50 40 7 0 23 11 35 24 13 14 40 28 61 31 22 4 44 12 49 19 16 17 56 38 62 32 3 -3 0 -12 -7 -21 -10 -13 -9 -15 9 -15 14 0 25 9 31 25 5 14 17 25 26 25 10 0 26 8 37 17 18 17 19 17 29 -1 9 -17 11 -17 24 2 9 14 21 18 35 15 14 -4 25 0 31 11 5 9 21 16 38 16 23 0 31 -5 36 -24 7 -27 24 -38 43 -26 9 5 4 14 -18 29 -20 15 -31 31 -31 47 0 22 2 23 23 12 12 -7 30 -19 39 -26 12 -10 21 -11 35 -3 17 10 16 11 -5 17 -35 10 -20 29 24 32 21 1 62 9 91 18 29 9 62 14 75 13 13 -2 38 5 57 15 21 11 45 16 62 12 17 -3 32 0 39 9 15 18 98 20 135 3 24 -11 29 -9 43 10 12 14 24 20 38 16 12 -3 26 1 33 10 8 9 22 16 32 16 11 0 19 5 19 10 0 6 10 10 22 10 20 0 20 -1 5 -18 -19 -21 -13 -32 15 -32 11 0 18 7 18 20 0 27 25 36 54 20 27 -14 66 -5 66 15 0 14 48 30 59 20 3 -4 -1 -12 -10 -18 -10 -7 -14 -19 -10 -30 6 -16 9 -14 28 12 21 28 26 29 110 32 48 2 146 2 218 0 104 -2 132 -5 138 -17 8 -14 11 -14 27 1 14 13 29 15 71 9 30 -3 71 -6 92 -5 48 1 77 -14 77 -38 0 -12 10 -21 25 -25 37 -9 22 -23 -25 -23 -22 0 -46 -6 -55 -13 -8 -7 -22 -10 -30 -6 -14 5 -14 8 2 24 10 11 31 22 46 26 15 4 25 11 22 16 -10 17 -50 11 -68 -10 -9 -11 -24 -20 -32 -20 -9 0 -20 -12 -25 -26 l-10 -25 -29 20 c-35 25 -40 26 -56 4 -11 -15 -15 -16 -30 -3 -14 12 -57 15 -199 17 -100 1 -200 5 -223 9 -27 4 -43 2 -43 -4 0 -6 6 -12 13 -15 6 -2 9 -8 4 -12 -4 -5 -23 -1 -43 8 -33 16 -37 16 -65 0 -29 -17 -31 -17 -40 0 -10 16 -12 16 -40 -4 -28 -20 -31 -20 -49 -4 -21 19 -40 13 -40 -12 0 -14 -2 -14 -20 2 -19 17 -20 17 -30 -11 -11 -27 -13 -28 -24 -11 -19 25 -33 21 -41 -10 -7 -28 -7 -28 -21 -7 -15 22 -15 22 -54 3 -23 -11 -50 -17 -63 -14 -15 4 -28 1 -36 -9 -19 -22 -52 -20 -58 4 -6 21 -12 24 -37 14 -11 -4 -13 -11 -8 -18 5 -6 12 -18 15 -28 5 -14 1 -15 -26 -7 -25 7 -34 6 -44 -7 -10 -14 -19 -15 -54 -6 -24 6 -46 9 -51 6 -15 -10 -8 -23 15 -27 21 -3 21 -4 3 -12 -13 -6 -21 -5 -24 3 -7 21 -38 13 -77 -18 -46 -36 -86 -39 -108 -7 l-16 22 0 -22 c-1 -39 -12 -53 -41 -53 -16 0 -32 -5 -35 -10 -5 -8 -11 -7 -21 1 -17 14 -30 4 -36 -25 -6 -34 -27 -29 -34 8 -7 42 -24 48 -24 9 -1 -16 -10 -39 -21 -52 -18 -22 -21 -23 -38 -7 -21 19 -31 12 -31 -21 0 -18 -6 -23 -24 -23 -13 0 -29 6 -36 14 -15 20 -42 9 -35 -14 6 -20 -33 -51 -62 -48 -57 5 -123 -34 -123 -73 0 -22 -1 -22 -32 -10 -20 8 -30 4 -58 -25 -30 -31 -35 -33 -50 -19 -20 18 -40 3 -40 -31 0 -15 -11 -29 -30 -41 -16 -9 -30 -21 -30 -25 0 -5 -11 -6 -25 -2 -19 5 -25 2 -25 -10 0 -9 -7 -16 -15 -16 -8 0 -19 -9 -25 -20 -6 -11 -21 -20 -33 -20 -12 0 -30 -8 -39 -17 -52 -54 -57 -57 -74 -42 -16 13 -17 11 -11 -23 7 -46 -6 -57 -29 -23 -20 30 -34 32 -41 5 -3 -11 -12 -20 -19 -20 -16 0 -19 -16 -4 -25 6 -3 -9 -28 -32 -56 -41 -47 -45 -49 -80 -43 -36 5 -38 4 -38 -20 0 -17 -5 -26 -16 -26 -12 0 -14 -7 -9 -30 4 -19 3 -30 -4 -30 -6 0 -11 5 -11 10 0 19 -25 10 -35 -12 -6 -13 -17 -22 -27 -20 -11 2 -18 -7 -22 -25 -7 -29 -93 -120 -133 -142 -13 -6 -23 -18 -23 -26 0 -8 -6 -15 -13 -15 -7 0 -20 -9 -30 -20 -19 -22 -33 -25 -42 -10 -3 6 6 15 20 20 29 11 25 30 -6 30 -11 0 -22 7 -25 15 -4 8 -10 12 -15 9 -14 -8 -10 -24 6 -24 17 0 20 -16 5 -25 -5 -3 -25 -3 -45 1 -30 5 -34 9 -29 29 4 18 -1 26 -27 39 -18 9 -36 16 -40 16 -4 0 -20 12 -35 27 -23 23 -25 28 -11 38 10 7 13 16 7 25 -7 12 -10 11 -16 -3 -6 -17 -8 -17 -26 2 -10 12 -23 21 -28 21 -5 0 -10 10 -12 23 -2 12 -10 23 -18 23 -8 1 -20 2 -27 3 -6 0 -13 13 -15 29 -2 21 -9 27 -28 29 -14 0 -29 1 -34 2 -5 1 -3 8 4 16 15 18 5 35 -21 35 -11 0 -34 16 -51 35 -17 20 -38 35 -47 34 -9 -1 -25 0 -36 0 -19 2 -18 3 3 11 12 5 22 14 22 20 0 16 -63 39 -77 28 -7 -5 -18 -6 -24 -2 -9 5 -7 11 6 20 39 28 2 51 -75 45 -24 -1 -24 -1 -6 14 16 12 17 18 8 27 -10 10 -17 10 -31 1 -16 -10 -22 -8 -37 9 -11 11 -29 24 -41 29 -28 11 -30 29 -3 29 11 0 20 7 20 15 0 20 -29 19 -51 -1 -22 -20 -41 -10 -37 19 2 18 -3 23 -29 25 -21 2 -33 9 -33 18 0 8 -10 14 -25 14 -14 0 -30 9 -37 20 -7 11 -17 20 -23 20 -25 0 -124 57 -129 74 -4 16 -7 17 -21 6 -13 -11 -18 -10 -33 4 -10 9 -24 16 -30 16 -7 0 -12 9 -12 20 0 14 -7 20 -24 20 -15 0 -26 7 -29 20 -6 24 -25 26 -34 4 -4 -11 1 -22 12 -30 42 -31 -39 4 -87 38 -14 10 -37 17 -50 16 -17 -2 -24 3 -26 20 -2 12 -9 22 -17 22 -7 0 -26 11 -42 24 -33 28 -83 44 -83 27 0 -18 -25 -13 -56 12 -19 14 -44 23 -74 24 -75 3 -121 14 -144 35 -11 10 -28 25 -36 33 -8 7 -44 16 -80 20 -84 8 -120 22 -120 46 0 23 -18 25 -26 4 -10 -25 -49 -17 -74 15 -25 32 -50 40 -50 15 0 -8 7 -15 15 -15 17 0 20 -16 5 -25 -5 -3 -25 5 -43 19 -41 32 -61 34 -52 6 3 -11 4 -20 2 -20 -13 0 -67 33 -67 41 0 16 -39 10 -49 -8 -9 -17 -13 -17 -58 -2 -36 12 -84 16 -190 15 -119 -1 -143 1 -145 14 -3 12 -21 14 -108 11 -58 -1 -107 -6 -110 -11 -3 -4 -52 -10 -110 -13 -58 -3 -117 -10 -131 -16 -20 -7 -30 -6 -42 6 -9 10 -20 12 -29 7 -7 -5 -23 -7 -34 -6 -12 2 -24 -4 -28 -13 -4 -11 -12 -14 -26 -10 -12 4 -27 1 -35 -5 -11 -9 -16 -7 -25 10 -9 16 -15 19 -23 11 -17 -17 -27 -13 -37 15 -12 32 -31 27 -43 -11 -7 -20 -6 -34 2 -48 19 -29 3 -37 -83 -42 -42 -3 -81 -7 -86 -10 -5 -3 -23 1 -39 9 -31 17 -158 16 -170 -1 -3 -5 -28 -23 -56 -40 -61 -39 -84 -61 -96 -91 -5 -12 -21 -28 -36 -34 -16 -7 -42 -23 -59 -35 -39 -29 -50 -29 -58 2 -5 19 3 39 34 85 22 33 45 60 51 60 5 0 15 11 21 25 6 14 18 25 27 25 9 0 24 9 34 20 9 11 23 20 31 20 8 0 16 7 20 15 4 11 13 14 30 9 14 -3 34 1 48 10 24 16 118 34 215 43 36 3 62 0 88 -13 43 -20 66 -12 75 27 6 24 50 42 50 20 0 -18 39 -12 59 8 12 12 23 16 34 10 10 -6 19 -3 28 7 11 14 15 13 30 -8 l18 -23 11 30 12 30 15 -22 c13 -19 18 -21 37 -11 11 6 26 17 31 24 10 14 209 25 285 17 19 -3 49 -5 65 -5z m6490 -48 c3 -5 -3 -10 -15 -10 -12 0 -18 5 -15 10 3 6 10 10 15 10 5 0 12 -4 15 -10z m87 -32 c3 -9 12 -9 36 1 28 12 40 10 124 -19 51 -17 98 -38 104 -46 15 -19 31 -18 42 2 7 12 11 13 17 4 4 -6 3 -16 -3 -22 -6 -6 -8 -17 -5 -24 7 -18 43 -18 43 0 0 7 11 21 24 29 22 15 27 14 66 -5 50 -25 57 -39 33 -67 -18 -22 -67 -29 -78 -11 -3 6 -2 10 2 10 5 0 18 6 29 14 18 14 18 15 -6 24 -16 6 -33 6 -48 -1 -21 -10 -23 -16 -18 -50 7 -39 6 -39 -21 -32 -15 3 -37 17 -50 31 -24 26 -71 32 -92 12 -10 -11 -14 -10 -22 5 -6 9 -21 17 -34 17 -18 0 -25 5 -25 20 0 21 -24 27 -35 9 -4 -6 -22 -8 -46 -4 -21 4 -60 7 -86 7 -27 -1 -57 5 -69 13 -13 8 -26 10 -34 5 -9 -5 -20 -4 -27 2 -20 17 -15 28 12 28 14 0 28 7 31 15 4 8 14 15 25 15 10 0 24 7 31 15 16 17 75 20 80 3z m591 -142 c15 -16 38 -26 74 -31 38 -5 54 -12 58 -26 5 -15 12 -17 37 -12 21 4 35 2 42 -8 6 -8 23 -20 38 -28 14 -7 28 -21 31 -31 3 -13 11 -16 30 -13 28 5 45 -13 28 -30 -15 -15 -14 -27 4 -27 9 0 18 7 21 15 4 8 11 15 18 15 15 -1 62 -49 80 -85 14 -26 16 -27 16 -8 0 33 18 38 44 11 13 -12 42 -36 65 -51 36 -25 40 -32 35 -55 -7 -26 -7 -27 13 -9 20 17 21 17 37 -8 9 -14 25 -25 37 -25 11 0 22 -6 25 -14 3 -8 13 -12 25 -9 23 6 48 -12 60 -44 5 -14 17 -23 29 -23 13 0 20 -7 20 -20 0 -11 6 -20 14 -20 7 0 26 -19 42 -42 15 -24 29 -45 31 -47 1 -2 9 2 17 8 20 17 36 6 36 -24 0 -12 13 -36 28 -51 38 -39 105 -96 128 -110 16 -10 17 -15 6 -33 -7 -12 -10 -26 -7 -31 10 -16 45 -11 45 5 0 8 4 15 10 15 5 0 7 -21 3 -50 -6 -55 12 -90 48 -90 10 0 30 -16 45 -35 14 -19 35 -35 46 -35 15 0 17 -4 9 -17 -6 -12 -6 -24 1 -37 8 -15 8 -21 -1 -24 -13 -4 -15 -32 -3 -32 5 0 13 10 18 21 10 21 11 21 28 3 18 -17 18 -18 -3 -26 -28 -10 -27 -26 4 -40 13 -6 27 -19 30 -30 4 -10 12 -18 18 -18 7 0 25 -18 40 -41 21 -29 26 -43 18 -52 -15 -18 -2 -58 18 -55 12 2 17 -8 21 -42 4 -40 8 -45 30 -45 15 0 26 -7 28 -18 2 -9 -1 -17 -7 -17 -17 0 -13 -27 4 -34 8 -3 15 -15 15 -27 0 -12 8 -23 20 -26 20 -5 25 -24 21 -70 -1 -15 4 -23 15 -23 15 0 53 -37 54 -52 0 -5 -7 -8 -15 -8 -8 0 -15 3 -15 8 0 13 -39 32 -55 26 -22 -9 -18 -24 7 -24 36 0 68 -38 68 -81 0 -28 5 -41 20 -49 25 -14 35 -52 20 -80 -9 -16 -9 -25 -1 -33 6 -6 11 -19 11 -29 0 -10 6 -29 14 -41 8 -12 19 -62 26 -112 6 -49 15 -99 20 -110 11 -25 27 -165 26 -228 -1 -26 2 -47 7 -47 13 0 7 -53 -8 -70 -14 -15 -13 -20 6 -44 16 -21 20 -36 16 -64 -22 -144 -27 -204 -17 -222 13 -25 14 -51 0 -30 -7 12 -12 12 -22 2 -9 -9 -8 -15 7 -26 19 -14 19 -15 2 -34 -15 -16 -16 -24 -6 -45 9 -21 9 -30 0 -41 -9 -11 -10 -20 -2 -35 18 -33 14 -61 -10 -61 -18 0 -20 -4 -15 -26 12 -47 -26 -276 -51 -305 -15 -18 -17 -49 -3 -49 14 0 12 -24 -5 -57 -8 -15 -17 -41 -20 -56 -7 -34 -30 -31 -31 4 -2 50 -5 53 -20 19 -15 -34 -15 -35 13 -57 l28 -23 -23 -15 c-12 -9 -22 -26 -22 -38 0 -11 -12 -33 -27 -49 -20 -21 -24 -30 -14 -41 9 -11 8 -17 -4 -27 -11 -9 -12 -17 -4 -31 8 -15 5 -25 -10 -46 -12 -14 -21 -31 -21 -38 0 -7 -7 -18 -15 -25 -8 -7 -15 -21 -15 -31 0 -11 -9 -36 -20 -56 -11 -21 -20 -43 -20 -50 0 -7 -4 -13 -10 -13 -5 0 -10 -9 -10 -19 0 -11 -11 -32 -25 -47 -13 -14 -22 -31 -19 -36 4 -6 1 -13 -5 -17 -6 -4 -15 -25 -18 -47 -7 -40 -9 -44 -60 -99 -18 -20 -33 -45 -33 -58 0 -12 -7 -31 -15 -41 -8 -11 -15 -28 -15 -38 0 -9 -9 -22 -19 -28 -25 -13 -37 -50 -21 -60 7 -4 9 -13 5 -20 -6 -10 -10 -9 -17 4 -5 9 -16 16 -23 16 -18 0 -20 -37 -3 -42 7 -3 -2 -13 -20 -23 -22 -13 -32 -27 -32 -43 0 -15 -7 -26 -20 -29 -11 -3 -20 -13 -20 -23 0 -10 -6 -23 -14 -29 -8 -7 -17 -23 -20 -36 -3 -13 -15 -29 -26 -35 -11 -6 -20 -20 -20 -32 0 -33 -38 -85 -71 -97 -24 -8 -29 -15 -24 -31 5 -15 0 -22 -19 -30 -14 -5 -26 -14 -26 -20 0 -6 -16 -25 -36 -42 -23 -21 -34 -37 -31 -50 6 -23 -10 -33 -28 -18 -8 7 -15 9 -16 4 0 -5 -2 -22 -2 -38 -2 -24 -11 -34 -47 -54 -25 -14 -46 -26 -48 -27 -2 -2 2 -12 9 -24 17 -26 3 -40 -15 -15 -16 21 -18 18 -30 -38 -4 -19 -13 -28 -26 -28 -11 0 -20 -7 -20 -15 0 -8 -9 -24 -20 -35 -11 -11 -20 -24 -20 -30 0 -5 -13 -7 -31 -3 -29 5 -31 4 -24 -16 4 -15 2 -23 -9 -26 -53 -17 -51 -14 -31 -29 17 -12 14 -36 -5 -36 -5 0 -24 -15 -43 -32 -18 -18 -53 -52 -78 -74 -24 -23 -55 -60 -69 -82 -14 -23 -28 -42 -32 -42 -5 0 -8 16 -8 35 0 45 -17 46 -25 1 -5 -22 -15 -37 -31 -45 -26 -11 -24 -31 2 -31 8 0 14 -7 14 -15 0 -20 -46 -20 -54 1 -3 8 -10 12 -16 9 -15 -9 -12 -25 5 -25 23 0 18 -10 -24 -54 -21 -23 -50 -54 -65 -69 -28 -30 -46 -28 -46 4 0 10 -5 19 -10 19 -16 0 -24 -30 -11 -43 17 -17 13 -27 -9 -27 -13 0 -25 -11 -33 -27 -16 -37 -32 -53 -54 -53 -10 0 -34 -17 -53 -36 -19 -20 -50 -42 -67 -49 -18 -8 -33 -21 -33 -29 0 -8 -13 -23 -30 -33 -16 -9 -30 -25 -30 -35 0 -10 -7 -18 -15 -18 -8 0 -19 -9 -25 -21 -7 -11 -18 -18 -25 -15 -8 3 -23 -7 -35 -24 -13 -19 -30 -30 -45 -30 -33 0 -55 -10 -55 -26 0 -23 -50 -65 -70 -59 -18 6 -80 -53 -80 -78 -1 -15 -96 -61 -109 -52 -6 3 -14 -9 -19 -27 -7 -27 -13 -34 -40 -36 -23 -2 -29 -7 -25 -19 4 -9 -1 -19 -10 -25 -10 -5 -17 -16 -17 -23 0 -20 -26 -19 -34 0 -8 23 -26 18 -26 -8 0 -26 -17 -42 -80 -76 -25 -13 -55 -35 -67 -49 -19 -23 -25 -24 -48 -14 -33 15 -35 15 -35 -3 0 -8 7 -15 15 -15 8 0 15 -4 15 -8 0 -12 -57 -52 -64 -45 -11 11 -6 23 9 23 8 0 15 5 15 10 0 6 -7 10 -15 10 -8 0 -15 -4 -15 -9 0 -5 -9 -11 -21 -14 -11 -3 -23 -15 -26 -26 -5 -21 -43 -30 -43 -11 0 6 -7 10 -15 10 -22 0 -18 -18 5 -25 11 -4 20 -15 20 -27 0 -18 -4 -20 -36 -15 -32 5 -36 4 -31 -13 7 -26 -13 -37 -28 -17 -17 23 -24 21 -35 -8 -5 -14 -21 -30 -35 -37 -14 -6 -25 -15 -25 -19 0 -11 -74 -49 -94 -49 -7 0 -16 -7 -20 -15 -3 -8 -12 -15 -21 -15 -8 0 -20 -11 -25 -25 -6 -15 -17 -25 -30 -25 -11 0 -20 -7 -20 -15 0 -22 -40 -19 -41 3 0 13 -2 12 -9 -5 -5 -13 -14 -23 -20 -23 -6 0 -15 -12 -20 -26 -8 -20 -15 -25 -30 -21 -13 3 -24 -1 -30 -13 -5 -10 -25 -23 -44 -30 -19 -6 -40 -18 -47 -26 -7 -8 -20 -12 -30 -9 -12 4 -21 1 -25 -9 -3 -9 -16 -16 -29 -16 -13 0 -30 -10 -39 -25 -18 -27 -45 -32 -64 -13 -17 17 -28 0 -14 -22 17 -28 15 -40 -8 -40 -11 0 -20 7 -20 15 0 8 -9 15 -21 15 -13 0 -20 -6 -18 -17 3 -32 -1 -43 -15 -43 -7 0 -25 -10 -40 -21 -23 -18 -31 -20 -52 -10 -32 14 -34 14 -34 -4 0 -14 -31 -32 -85 -50 -19 -7 -19 -7 3 -16 12 -4 22 -13 22 -19 0 -13 -33 -13 -47 1 -16 16 -48 2 -61 -26 -7 -14 -20 -25 -31 -25 -10 0 -24 -7 -31 -15 -7 -8 -23 -15 -36 -15 -25 0 -72 -28 -119 -73 -18 -16 -36 -25 -46 -22 -11 4 -28 -5 -44 -21 -20 -20 -29 -24 -38 -15 -21 21 -40 13 -33 -14 6 -22 4 -24 -21 -19 -21 4 -36 -2 -57 -21 -16 -14 -41 -25 -56 -25 -16 0 -30 -7 -34 -15 -3 -9 -19 -15 -41 -15 -30 0 -35 -3 -35 -24 0 -19 -7 -26 -32 -31 -18 -4 -49 -18 -70 -31 -44 -28 -61 -30 -78 -9 -15 18 -30 11 -30 -14 0 -12 -14 -24 -43 -35 -23 -9 -48 -16 -54 -16 -6 0 -25 -13 -42 -29 -35 -33 -85 -37 -106 -8 -7 9 -17 17 -24 17 -14 0 -14 6 0 31 7 14 16 18 30 14 14 -5 21 0 29 20 8 21 14 24 35 19 19 -5 25 -2 25 10 0 9 16 22 36 31 48 20 54 19 51 -7 -1 -15 3 -23 13 -23 10 0 16 12 18 35 4 42 17 59 34 42 20 -20 58 -15 58 7 0 25 20 38 30 21 6 -10 14 -8 34 6 14 11 26 22 26 27 0 4 11 7 25 7 18 0 28 7 35 25 8 21 14 24 35 19 18 -4 27 -2 31 10 4 11 13 14 30 10 18 -5 24 -2 24 10 0 9 -4 16 -10 16 -5 0 -10 5 -10 11 0 7 8 9 20 5 11 -3 29 -9 40 -12 14 -4 20 -2 20 8 0 17 53 58 74 58 23 0 29 -20 12 -39 -17 -18 -12 -31 11 -31 8 0 13 11 13 28 0 39 49 92 83 92 15 0 27 5 27 11 0 6 17 8 48 4 42 -5 45 -5 30 8 -10 8 -18 24 -18 36 0 24 0 24 35 11 24 -9 32 -6 66 24 21 19 51 42 67 50 16 8 32 23 36 32 4 10 12 14 22 10 17 -7 49 7 79 35 11 9 36 19 55 21 30 3 35 6 32 26 -2 15 2 22 13 22 26 0 75 29 75 45 0 20 19 19 41 -1 21 -19 39 -11 39 17 0 13 7 19 24 19 13 0 26 3 28 8 2 4 22 19 45 35 24 15 42 33 40 40 -1 7 10 13 28 13 53 3 92 23 106 56 10 26 16 29 40 24 23 -4 31 -1 40 17 7 12 17 25 23 29 19 13 46 9 46 -7 0 -16 16 -20 24 -6 3 5 -1 14 -9 21 -25 21 -17 30 25 30 30 0 42 5 47 18 3 9 15 29 25 45 15 21 25 26 44 21 20 -5 24 -2 24 15 0 14 6 21 20 21 11 0 20 -4 20 -10 0 -5 5 -10 10 -10 6 0 10 11 10 25 0 21 5 25 29 25 16 0 34 7 41 15 7 8 19 15 26 15 8 0 14 7 14 15 0 8 8 15 18 15 11 0 24 11 30 25 6 14 20 25 30 25 11 0 27 9 37 20 10 12 34 30 52 41 18 11 34 28 34 37 1 15 2 15 6 -1 6 -21 32 -22 40 -1 4 11 13 13 34 9 34 -8 39 9 9 25 -23 12 -18 30 9 30 10 0 25 8 35 19 11 12 25 16 41 13 18 -3 25 0 25 12 0 9 7 19 15 22 8 4 15 14 15 23 0 10 12 24 28 32 15 7 41 24 58 36 17 13 35 23 39 23 5 0 30 23 57 50 26 28 57 50 68 50 22 0 27 16 8 23 -7 2 -10 8 -6 12 4 4 14 2 23 -5 12 -10 16 -8 26 14 7 14 18 26 25 26 6 0 15 7 18 16 4 10 13 13 26 9 15 -5 20 -2 20 14 0 23 25 51 46 51 8 0 14 -7 14 -15 0 -25 29 -17 36 9 3 14 14 32 25 42 12 11 17 24 13 36 -5 17 -3 18 14 7 26 -16 59 -4 42 16 -14 17 -3 38 16 31 23 -9 45 5 43 28 -2 35 0 39 16 26 12 -10 18 -10 30 0 8 7 15 19 15 26 0 8 -7 14 -15 14 -8 0 -15 4 -15 10 0 5 21 7 50 3 40 -5 51 -3 56 11 3 9 1 23 -6 31 -11 13 -9 15 11 13 18 -2 25 2 27 18 2 12 14 26 27 32 13 6 31 23 41 37 9 14 22 25 29 25 8 0 16 9 20 20 6 18 37 41 76 56 9 3 19 19 23 35 4 20 13 30 31 35 14 3 25 12 25 19 0 8 10 15 23 17 18 2 21 8 19 36 -3 30 10 43 23 22 12 -19 25 -10 25 19 0 25 4 29 40 35 42 7 48 14 28 34 -19 19 6 39 27 22 14 -11 19 -10 37 8 20 19 20 22 5 28 -20 7 -23 34 -3 34 8 0 16 -7 20 -15 6 -16 56 -21 56 -6 0 5 -10 16 -22 24 l-23 16 26 23 c15 13 35 35 44 51 10 15 24 27 31 27 8 0 14 10 14 25 0 27 9 32 28 13 9 -9 12 -6 12 15 0 26 30 67 49 67 12 0 61 77 61 96 0 19 28 54 42 54 5 0 13 -10 18 -22 7 -19 9 -16 9 20 1 23 5 42 9 42 5 0 8 10 8 21 -1 12 5 24 12 26 6 3 12 -3 12 -12 0 -10 6 -15 18 -13 12 2 16 11 14 30 -2 19 3 30 17 38 14 7 21 21 21 40 0 30 13 40 25 20 11 -18 26 1 25 28 -1 15 -2 33 -1 40 1 17 28 15 39 -3 7 -14 11 -13 27 5 18 20 19 22 2 31 -24 14 -21 28 9 39 21 8 25 15 20 34 -3 14 -1 30 6 38 7 7 20 26 28 42 8 16 25 33 37 39 25 11 30 23 11 29 -18 6 10 41 66 84 50 38 74 80 56 98 -15 15 -12 26 5 26 11 0 14 7 9 24 -4 17 -1 27 12 34 11 6 15 17 11 31 -5 21 7 29 18 11 10 -15 35 -12 35 5 0 8 -7 15 -15 15 -21 0 -19 15 8 44 16 18 30 23 45 19 14 -3 22 -1 22 7 0 6 -9 14 -20 17 -11 3 -20 11 -20 18 0 16 25 26 45 19 17 -7 21 21 4 31 -7 5 -3 14 10 26 12 11 21 28 21 38 0 10 8 29 18 42 10 13 28 55 41 93 20 62 20 70 6 86 -8 9 -13 25 -9 34 10 26 24 18 24 -15 0 -40 21 -33 33 11 6 22 5 41 -3 55 -10 18 -7 28 14 60 15 22 26 52 26 71 0 25 4 34 16 34 14 0 15 8 10 54 -5 34 -3 56 3 61 6 3 11 17 11 29 0 13 6 29 14 35 8 7 16 28 18 49 10 79 39 248 48 278 16 50 12 155 -6 175 -17 19 -11 39 12 39 19 0 18 19 -3 43 -17 18 -17 20 10 41 33 26 34 32 5 39 -20 6 -20 8 -7 24 16 20 18 116 4 216 -6 43 -5 57 4 57 9 0 11 11 6 40 -4 21 -7 65 -7 97 0 37 -7 67 -19 87 -11 17 -19 47 -19 67 0 19 -9 72 -21 118 -11 46 -18 92 -15 104 3 12 -3 32 -14 47 -14 20 -18 37 -13 64 5 32 3 36 -16 36 -22 0 -30 25 -9 32 8 3 2 17 -16 41 -24 31 -27 43 -22 74 6 34 5 36 -7 21 -22 -28 -29 -21 -22 22 5 28 2 46 -9 62 -9 12 -16 39 -16 60 0 32 -3 37 -27 40 -18 2 -33 13 -43 31 -14 26 -14 29 3 38 9 6 17 14 17 19 0 15 -28 12 -33 -2 -6 -19 -37 46 -37 78 0 18 -12 38 -35 60 -35 32 -45 54 -25 54 6 0 10 7 10 15 0 8 -7 15 -15 15 -8 0 -15 -4 -15 -10 0 -5 -6 -10 -14 -10 -11 0 -13 10 -9 40 5 36 3 40 -16 40 -12 0 -21 6 -21 15 0 7 -8 18 -17 24 -15 8 -16 14 -6 40 13 35 13 34 -22 21 -21 -8 -27 -7 -32 6 -3 9 -1 25 6 36 16 25 2 47 -15 24 -19 -26 -37 -9 -32 30 3 26 0 34 -12 34 -9 0 -21 -5 -28 -12 -9 -9 -12 -9 -12 0 0 7 5 12 10 12 23 0 8 32 -20 41 -19 7 -30 18 -30 30 0 13 -7 19 -24 19 -16 0 -27 7 -31 20 -3 10 -20 31 -38 46 -18 15 -31 31 -29 37 7 22 -9 45 -28 40 -11 -3 -20 0 -20 6 0 6 -9 20 -21 32 -13 13 -18 27 -14 40 5 15 2 19 -19 19 -17 0 -26 5 -26 16 0 14 -3 14 -15 4 -13 -11 -20 -9 -40 10 -14 13 -25 31 -25 40 0 10 -9 29 -21 44 -16 21 -24 24 -35 16 -16 -14 -34 -5 -34 19 0 25 -11 33 -26 20 -11 -9 -20 -6 -39 12 -13 13 -25 29 -25 34 0 6 -13 16 -30 22 -16 6 -30 18 -30 27 0 11 -9 16 -29 16 -17 0 -33 5 -36 10 -5 8 -11 8 -20 0 -18 -15 -31 6 -16 24 14 17 2 29 -15 15 -17 -14 -40 -1 -25 14 6 6 11 20 10 32 0 19 -1 19 -11 -2 -14 -28 -48 -30 -55 -3 -3 11 -11 20 -18 20 -7 0 -18 7 -25 15 -9 11 -17 12 -30 5 -19 -10 -50 -4 -50 10 0 4 10 11 23 14 22 6 22 6 2 22 -18 13 -21 13 -29 -6 -11 -24 -24 -26 -32 -5 -4 8 -14 15 -25 15 -10 0 -26 8 -36 19 -24 24 -97 61 -123 61 -24 0 -24 1 -8 37 25 56 57 66 91 29z m-8140 -11 c1 -5 -6 -11 -15 -13 -11 -2 -18 3 -18 13 0 17 30 18 33 0z m-75 -34 c3 -8 -1 -12 -9 -9 -7 2 -15 10 -17 17 -3 8 1 12 9 9 7 -2 15 -10 17 -17z m-323 -74 c-14 -22 -19 -23 -41 -13 -30 14 -27 40 6 44 14 2 30 8 35 13 17 17 17 -18 0 -44z m-65 -28 c0 -12 10 -21 25 -25 31 -8 28 -28 -6 -32 -13 -2 -27 -10 -31 -17 -4 -7 -29 -16 -55 -20 -42 -6 -45 -9 -30 -20 26 -19 21 -28 -12 -22 -21 5 -34 1 -47 -14 -13 -15 -25 -18 -47 -13 -26 5 -28 4 -22 -15 9 -29 -11 -51 -46 -51 -17 0 -37 -9 -46 -20 -10 -11 -26 -20 -36 -20 -13 0 -17 -7 -15 -27 3 -24 -1 -28 -26 -31 -16 -2 -42 -17 -58 -33 -16 -16 -49 -37 -74 -48 -33 -15 -44 -25 -44 -43 0 -32 -14 -50 -33 -43 -12 5 -14 2 -10 -16 5 -19 3 -21 -13 -15 -38 15 -74 18 -74 8 0 -6 9 -14 20 -17 27 -9 25 -17 -9 -43 -16 -12 -31 -32 -33 -44 -2 -12 -13 -28 -25 -34 -13 -6 -40 -37 -62 -70 -39 -59 -62 -83 -100 -104 -23 -12 -28 -36 -9 -42 21 -7 -3 -28 -33 -28 -27 0 -29 -3 -29 -39 0 -34 -3 -38 -20 -34 -15 4 -20 0 -20 -16 0 -12 -7 -24 -15 -27 -8 -4 -15 -15 -15 -25 0 -10 -5 -19 -11 -19 -6 0 -8 -8 -4 -19 3 -12 0 -21 -10 -25 -8 -3 -15 -16 -15 -30 0 -18 -6 -25 -22 -28 -17 -2 -24 -11 -26 -30 -2 -18 -14 -34 -33 -45 -18 -11 -33 -29 -36 -46 -5 -23 -9 -26 -27 -21 -19 6 -19 5 -7 -10 33 -40 -24 -22 -61 19 -9 11 -17 32 -18 47 0 32 46 105 72 114 11 3 18 15 18 29 0 15 7 26 19 30 14 4 22 19 26 50 5 31 12 45 26 48 10 3 22 13 25 24 9 23 92 162 112 186 8 9 25 17 37 17 30 0 36 9 24 33 -10 18 -9 19 20 14 35 -7 37 -3 17 36 -13 23 -13 27 -1 27 8 0 17 -4 20 -10 9 -15 35 -12 35 4 0 8 -7 17 -16 20 -20 8 -9 26 16 26 10 0 23 6 27 13 4 7 23 23 41 36 17 12 32 27 32 32 0 5 10 23 22 39 23 32 73 41 96 18 8 -8 12 -9 12 -1 0 6 -12 21 -26 32 -28 22 -27 58 2 47 9 -3 19 -6 24 -6 4 0 10 -9 13 -20 3 -11 10 -20 16 -20 17 0 13 28 -6 38 -21 12 -10 42 17 42 13 0 20 7 20 20 0 11 5 20 10 20 6 0 20 11 32 25 12 14 28 25 36 25 8 0 32 14 54 31 29 24 42 29 51 20 6 -6 17 -11 24 -11 19 0 16 27 -3 38 -22 12 -9 32 20 32 13 0 29 7 36 15 7 8 25 15 41 15 19 0 30 6 34 19 3 11 14 23 25 26 10 3 26 17 34 31 13 18 22 23 40 18 16 -4 25 0 29 11 5 11 14 14 32 9 22 -5 25 -3 25 18 0 14 3 27 6 31 11 11 54 -25 54 -44z m2850 21 c0 -5 -11 -10 -25 -10 -14 0 -25 5 -25 10 0 6 11 10 25 10 14 0 25 -4 25 -10z m-3335 -441 c10 -15 -1 -23 -20 -15 -9 3 -13 10 -10 16 8 13 22 13 30 -1z m10375 -383 c0 -19 -2 -19 -25 6 -14 15 -25 35 -25 44 0 15 4 14 25 -6 14 -13 25 -33 25 -44z m170 -236 c0 -5 -7 -10 -15 -10 -8 0 -15 5 -15 10 0 6 7 10 15 10 8 0 15 -4 15 -10z m-2022 -5511 c-2 -6 -8 -10 -13 -10 -5 0 -11 4 -13 10 -2 6 4 11 13 11 9 0 15 -5 13 -11z m-6996 -51 c9 -7 18 -22 20 -33 4 -27 96 -42 113 -19 8 12 16 13 38 5 29 -11 35 -29 16 -48 -9 -9 -3 -16 25 -29 20 -10 36 -22 36 -28 0 -13 76 -86 89 -86 5 0 11 -7 15 -15 8 -21 44 -19 51 4 9 28 33 33 55 11 26 -26 25 -42 -5 -70 -21 -19 -25 -33 -25 -77 0 -29 -2 -53 -5 -53 -2 0 -30 24 -61 53 -31 28 -63 56 -71 61 -9 4 -44 37 -80 72 -35 35 -68 64 -72 64 -5 0 -11 10 -14 21 -4 16 -11 20 -26 16 -26 -6 -37 9 -20 29 6 8 9 18 5 21 -4 4 -11 1 -17 -7 -8 -13 -11 -12 -24 4 -16 21 -50 14 -41 -9 3 -8 1 -17 -4 -20 -6 -4 -10 2 -10 12 0 10 -10 38 -23 63 -17 33 -20 49 -13 57 14 16 29 16 48 1z m6638 -43 c0 -9 -6 -12 -15 -9 -8 4 -15 10 -15 15 0 5 7 9 15 9 8 0 15 -7 15 -15z m-6143 -305 c4 -14 9 -17 17 -11 18 15 90 -2 94 -22 6 -30 75 -99 94 -94 10 3 21 1 24 -5 10 -16 48 -26 61 -16 14 12 36 1 27 -13 -7 -12 25 -38 47 -39 9 0 22 -7 29 -15 7 -8 22 -15 34 -15 13 0 33 -11 46 -25 13 -14 32 -25 42 -25 22 0 25 -35 2 -44 -8 -3 -12 -11 -8 -17 5 -9 11 -7 20 5 16 23 46 17 59 -12 7 -17 16 -22 33 -19 13 3 28 -2 35 -12 7 -9 27 -24 45 -33 77 -42 96 -54 120 -76 20 -18 28 -20 40 -10 11 10 16 9 26 -3 6 -9 21 -19 34 -23 12 -4 22 -12 22 -17 0 -5 9 -9 19 -9 11 0 23 -4 26 -10 3 -5 14 -10 23 -10 9 0 25 -14 34 -30 12 -21 25 -30 43 -30 14 0 25 -5 25 -11 0 -6 9 -8 20 -4 12 4 20 2 20 -5 0 -6 11 -15 25 -20 14 -5 25 -14 25 -20 0 -5 9 -10 19 -10 11 0 36 -16 57 -35 20 -19 43 -35 50 -35 7 0 27 -13 44 -30 33 -32 60 -39 60 -15 0 24 30 17 40 -10 5 -14 16 -25 24 -25 21 0 30 -19 16 -35 -10 -13 -8 -15 14 -15 19 0 26 5 26 20 0 11 4 20 9 20 18 0 22 -19 9 -39 -10 -17 -10 -23 0 -33 11 -11 16 -10 26 5 13 17 56 24 56 10 0 -5 7 -17 15 -27 12 -16 17 -17 31 -5 14 11 18 11 29 -4 7 -9 19 -17 27 -17 9 0 21 -7 28 -15 7 -8 22 -15 34 -15 12 0 31 -7 42 -15 18 -13 17 -14 -18 -15 -27 0 -38 -4 -38 -15 0 -11 7 -14 24 -9 15 4 34 0 47 -10 20 -14 23 -14 34 1 13 18 35 10 35 -13 0 -8 6 -14 14 -14 8 0 16 -7 20 -15 3 -10 19 -15 42 -15 26 0 43 -7 60 -25 13 -14 34 -25 46 -25 25 0 52 -25 62 -58 10 -29 63 -49 88 -33 22 14 33 7 41 -24 5 -19 5 -19 12 3 9 26 36 22 72 -10 16 -15 29 -19 47 -14 28 7 36 -10 14 -32 -17 -17 6 -16 42 3 24 12 29 12 33 1 7 -18 -1 -26 -25 -26 -10 0 -18 -7 -18 -15 0 -9 9 -15 25 -15 16 0 25 6 25 15 0 25 39 17 52 -10 8 -19 16 -24 31 -19 11 3 34 -2 53 -12 33 -18 34 -18 48 1 15 19 15 19 16 -7 0 -35 34 -47 62 -22 19 18 20 18 33 1 16 -22 31 -22 44 1 9 16 10 16 16 0 7 -18 36 -24 49 -10 4 4 11 7 14 8 4 0 29 11 56 23 27 12 51 19 54 16 3 -2 -3 -7 -12 -11 -23 -9 -21 -44 4 -44 13 0 20 7 20 19 0 19 42 37 60 26 5 -3 25 10 45 30 20 19 44 35 54 35 9 0 27 9 39 20 12 11 32 20 45 20 13 0 32 10 44 23 29 34 79 25 118 -20 28 -34 29 -36 10 -50 -18 -13 -20 -12 -23 7 -3 16 -10 20 -30 18 -32 -4 -33 -19 -3 -34 21 -11 21 -12 -11 -17 -20 -3 -39 1 -49 9 -23 21 -32 17 -25 -10 7 -28 -13 -49 -34 -36 -9 6 -23 1 -43 -16 -33 -28 -40 -29 -57 -9 -17 20 -36 19 -44 -2 -5 -11 1 -23 16 -35 23 -17 23 -17 -22 -16 -59 1 -120 -21 -120 -45 0 -23 -20 -30 -54 -18 -22 9 -28 8 -33 -7 -10 -26 -23 -32 -76 -32 -40 0 -50 3 -54 20 -3 12 -13 19 -26 17 -13 -1 -25 7 -33 22 -14 28 -53 36 -102 20 -38 -13 -51 -6 -32 16 10 12 10 15 -4 15 -9 0 -16 8 -17 18 -1 17 -2 15 -14 -25 -6 -17 -65 4 -65 23 0 7 -18 23 -40 34 -33 17 -43 18 -59 8 -26 -16 -40 -2 -16 16 27 19 2 30 -40 16 -34 -11 -36 -10 -84 38 -42 42 -58 51 -99 57 -32 4 -52 3 -57 -4 -3 -6 -11 -9 -16 -5 -7 4 -6 10 0 18 6 7 13 31 17 55 6 35 4 43 -7 39 -8 -3 -14 -18 -14 -36 0 -16 -3 -34 -8 -38 -9 -9 -57 35 -57 53 0 7 -7 13 -15 13 -8 0 -15 -4 -15 -10 0 -31 -104 16 -147 68 -16 19 -31 26 -57 25 -32 -1 -35 2 -38 31 -3 28 -6 31 -32 28 -16 -2 -36 0 -45 4 -9 4 -29 8 -46 8 -27 1 -30 4 -27 29 2 23 -1 27 -23 27 -14 0 -25 -4 -25 -10 0 -17 -29 -11 -40 9 -6 13 -17 17 -30 14 -11 -3 -20 0 -20 6 0 6 7 11 15 11 8 0 15 5 15 11 0 8 -11 9 -31 5 -26 -5 -42 1 -86 30 -30 20 -57 43 -60 51 -8 20 -53 37 -67 23 -15 -15 -36 -12 -30 4 3 9 -6 20 -25 29 -26 13 -31 13 -31 1 0 -18 -14 -18 -30 1 -11 13 -10 18 6 30 17 13 17 14 2 15 -9 0 -20 -4 -23 -10 -3 -5 -17 -10 -31 -10 -19 0 -24 5 -24 26 0 23 -3 25 -30 19 -27 -6 -30 -4 -30 19 0 28 -18 34 -39 14 -11 -10 -14 -10 -18 0 -3 6 -14 12 -26 12 -13 0 -39 19 -64 45 -27 30 -50 45 -66 45 -14 0 -27 7 -31 15 -3 8 -17 15 -32 15 -23 0 -26 3 -21 26 5 26 4 26 -40 19 -35 -5 -44 -4 -40 7 2 7 10 12 16 11 6 -2 11 0 11 5 0 12 -52 32 -83 32 -24 0 -27 3 -22 21 7 21 5 22 -38 17 -39 -5 -49 -2 -68 18 -12 13 -17 24 -11 24 7 0 12 5 12 10 0 6 -7 10 -15 10 -7 0 -18 8 -24 17 -7 14 -12 15 -25 4 -9 -7 -24 -10 -37 -6 -21 7 -21 7 5 24 l26 18 -25 11 c-33 15 -52 15 -57 0 -6 -16 -38 -2 -38 17 0 8 7 15 16 15 9 0 14 7 12 17 -5 25 -28 28 -28 4 0 -28 -19 -26 -52 4 -15 14 -33 25 -40 25 -7 0 -21 14 -31 31 -9 17 -26 33 -37 36 -10 3 -26 16 -35 30 -13 19 -22 23 -40 19 -17 -4 -28 0 -40 16 -12 16 -19 19 -22 11 -10 -26 -24 -12 -18 17 4 19 3 30 -4 30 -12 0 -15 42 -4 53 12 13 25 7 30 -13z m1094 -603 c-1 -12 -15 -9 -19 4 -3 6 1 10 8 8 6 -3 11 -8 11 -12z m1176 -623 c5 -15 -47 -28 -60 -15 -5 5 -6 14 -2 21 9 14 57 9 62 -6z m488 -324 c0 -18 -33 -26 -48 -11 -9 9 -8 14 3 21 21 14 45 8 45 -10z"/> <path d="M10872 11730 c-16 -27 -15 -30 8 -30 15 0 20 7 20 25 0 30 -11 32 -28 5z"/> <path d="M4505 11710 c-18 -7 -18 -8 8 -15 30 -8 43 -2 32 14 -7 13 -12 13 -40 1z"/> <path d="M4799 11709 c-10 -6 -4 -9 19 -9 17 0 32 2 32 4 0 9 -39 13 -51 5z"/> <path d="M5140 11680 c-12 -8 -11 -10 8 -10 12 0 22 5 22 10 0 13 -11 13 -30 0z"/> <path d="M5744 11585 c10 -8 24 -11 29 -8 6 4 2 10 -9 14 -31 12 -40 9 -20 -6z"/> <path d="M5993 11543 c-21 -7 -15 -33 7 -33 11 0 20 6 20 14 0 18 -11 25 -27 19z"/> <path d="M5791 11531 c-12 -8 -10 -12 12 -22 21 -9 30 -9 42 1 8 7 15 16 15 21 0 12 -51 11 -69 0z"/> <path d="M9233 11473 c-18 -7 -16 -23 2 -23 8 0 15 7 15 15 0 8 -1 15 -2 14 -2 0 -9 -3 -15 -6z"/> <path d="M8870 11350 c0 -5 7 -10 15 -10 8 0 15 5 15 10 0 6 -7 10 -15 10 -8 0 -15 -4 -15 -10z"/> <path d="M8967 11354 c-8 -8 1 -24 14 -24 5 0 9 7 9 15 0 15 -12 20 -23 9z"/> <path d="M8860 11280 c0 -5 7 -10 15 -10 8 0 15 5 15 10 0 6 -7 10 -15 10 -8 0 -15 -4 -15 -10z"/> <path d="M8510 11155 c0 -8 5 -15 10 -15 6 0 10 7 10 15 0 8 -4 15 -10 15 -5 0 -10 -7 -10 -15z"/> <path d="M8455 11109 c-4 -6 2 -13 14 -16 12 -3 21 -12 21 -20 0 -8 4 -12 9 -9 12 8 -10 56 -26 56 -6 0 -15 -5 -18 -11z"/> <path d="M8335 11060 c-4 -6 -3 -16 3 -22 6 -6 12 -6 17 2 4 6 3 16 -3 22 -6 6 -12 6 -17 -2z"/> <path d="M8417 11064 c-14 -15 -6 -34 14 -34 14 0 19 5 17 17 -3 18 -20 27 -31 17z"/> <path d="M7100 10900 c0 -5 7 -10 15 -10 8 0 15 5 15 10 0 6 -7 10 -15 10 -8 0 -15 -4 -15 -10z"/> <path d="M7616 10545 c-6 -17 9 -29 24 -20 14 9 12 22 -4 28 -8 3 -17 -1 -20 -8z"/> <path d="M11783 11495 c-3 -9 -3 -18 0 -21 7 -8 47 15 47 26 0 16 -40 11 -47 -5z"/> <path d="M11870 11456 c0 -10 9 -16 21 -16 24 0 21 23 -4 28 -10 2 -17 -3 -17 -12z"/> <path d="M12000 11441 c0 -10 30 -24 37 -17 3 3 2 9 -2 15 -8 13 -35 15 -35 2z"/> <path d="M12360 11190 c0 -13 5 -20 13 -17 6 2 12 10 12 17 0 7 -6 15 -12 18 -8 2 -13 -5 -13 -18z"/> <path d="M12944 10729 c-8 -14 11 -33 25 -25 11 7 4 36 -9 36 -5 0 -12 -5 -16 -11z"/> <path d="M13127 10431 c3 -12 12 -21 20 -21 20 0 12 34 -9 38 -12 2 -15 -2 -11 -17z"/> <path d="M13435 9900 c-4 -6 -2 -17 4 -23 15 -15 25 -2 13 19 -7 12 -11 13 -17 4z"/> <path d="M13560 8550 c0 -19 3 -21 12 -12 9 9 9 15 0 24 -9 9 -12 7 -12 -12z"/> <path d="M13281 7271 c-10 -6 -10 -10 -1 -16 13 -8 24 -1 19 14 -3 6 -10 7 -18 2z"/> <path d="M13118 7069 c-17 -18 -17 -19 0 -19 19 0 42 18 42 32 0 14 -25 7 -42 -13z"/> <path d="M13076 6893 c-12 -12 -6 -33 9 -33 8 0 15 6 15 14 0 17 -14 28 -24 19z"/> <path d="M12985 6849 c-10 -15 1 -23 20 -15 9 3 13 10 10 16 -8 13 -22 13 -30 -1z"/> <path d="M12920 6755 c0 -8 9 -15 19 -15 26 0 35 16 15 24 -25 10 -34 7 -34 -9z"/> <path d="M12862 6508 c-20 -20 -14 -40 11 -36 14 2 22 10 22 22 0 24 -16 31 -33 14z"/> <path d="M12710 6345 c0 -8 5 -15 10 -15 6 0 10 7 10 15 0 8 -4 15 -10 15 -5 0 -10 -7 -10 -15z"/> <path d="M12350 5975 c0 -8 7 -15 15 -15 8 0 15 7 15 15 0 8 -7 15 -15 15 -8 0 -15 -7 -15 -15z"/> <path d="M11937 5476 c-6 -16 2 -28 14 -20 12 7 11 34 0 34 -5 0 -11 -6 -14 -14z"/> <path d="M11907 5444 c-8 -8 1 -24 14 -24 5 0 9 7 9 15 0 15 -12 20 -23 9z"/> <path d="M11665 5290 c-4 -6 -3 -16 3 -22 6 -6 12 -6 17 2 4 6 3 16 -3 22 -6 6 -12 6 -17 -2z"/> <path d="M11125 4839 c-10 -15 1 -23 20 -15 9 3 13 10 10 16 -8 13 -22 13 -30 -1z"/> <path d="M10695 4540 c-3 -5 3 -10 15 -10 12 0 18 5 15 10 -3 6 -10 10 -15 10 -5 0 -12 -4 -15 -10z"/> <path d="M10344 4307 c-8 -21 2 -35 16 -21 5 5 6 15 0 24 -8 12 -10 12 -16 -3z"/> <path d="M9657 3923 c-14 -13 -6 -23 18 -23 28 0 34 15 9 24 -19 7 -19 7 -27 -1z"/> <path d="M9620 3874 c0 -17 22 -14 28 4 2 7 -3 12 -12 12 -9 0 -16 -7 -16 -16z"/> <path d="M9590 3825 c0 -8 5 -15 10 -15 6 0 10 7 10 15 0 8 -4 15 -10 15 -5 0 -10 -7 -10 -15z"/> <path d="M8730 3400 c0 -5 10 -10 23 -10 18 0 19 2 7 10 -19 13 -30 13 -30 0z"/> <path d="M8315 3190 c-3 -5 3 -10 15 -10 12 0 18 5 15 10 -3 6 -10 10 -15 10 -5 0 -12 -4 -15 -10z"/> <path d="M3170 11356 c0 -9 7 -16 16 -16 9 0 14 5 12 12 -6 18 -28 21 -28 4z"/> <path d="M2915 11190 c3 -5 15 -10 26 -10 10 0 19 5 19 10 0 6 -12 10 -26 10 -14 0 -23 -4 -19 -10z"/> <path d="M2000 10225 c0 -14 4 -25 9 -25 12 0 23 29 15 41 -10 18 -24 9 -24 -16z"/> <path d="M1940 10175 c0 -8 5 -15 10 -15 6 0 10 7 10 15 0 8 -4 15 -10 15 -5 0 -10 -7 -10 -15z"/> <path d="M4827 4394 c-8 -8 1 -24 14 -24 5 0 9 7 9 15 0 15 -12 20 -23 9z"/> <path d="M5272 4021 c4 -13 18 -16 19 -4 0 4 -5 9 -11 12 -7 2 -11 -2 -8 -8z"/> <path d="M5570 3874 c0 -17 22 -14 28 4 2 7 -3 12 -12 12 -9 0 -16 -7 -16 -16z"/> <path d="M5702 3797 c2 -14 11 -23 26 -25 31 -5 28 20 -4 35 -23 11 -25 10 -22 -10z"/> <path d="M6378 3478 c9 -9 15 -9 24 0 9 9 7 12 -12 12 -19 0 -21 -3 -12 -12z"/> <path d="M8152 3131 c4 -13 18 -16 19 -4 0 4 -5 9 -11 12 -7 2 -11 -2 -8 -8z"/> <path d="M8040 3065 c0 -9 5 -15 11 -13 6 2 11 8 11 13 0 5 -5 11 -11 13 -6 2 -11 -4 -11 -13z"/> <path d="M8003 3043 c-20 -8 -15 -23 7 -23 11 0 20 7 20 15 0 15 -6 17 -27 8z"/> <path d="M7650 2885 c0 -8 5 -15 10 -15 6 0 10 7 10 15 0 8 -4 15 -10 15 -5 0 -10 -7 -10 -15z"/> <path d="M7314 10025 c-10 -8 -27 -15 -37 -15 -35 0 -116 -67 -117 -96 0 -6 -7 -17 -15 -24 -8 -7 -15 -20 -15 -30 0 -10 -7 -23 -15 -30 -12 -10 -15 -40 -15 -151 0 -139 4 -158 46 -241 8 -14 14 -31 14 -38 0 -13 84 -142 117 -180 20 -22 46 -67 90 -152 8 -16 19 -28 24 -28 5 0 9 -7 9 -16 0 -9 6 -28 14 -42 40 -78 58 -218 36 -272 -10 -24 -10 -33 0 -45 14 -17 55 -11 81 11 8 8 27 14 41 14 14 0 31 7 38 15 7 8 22 15 34 15 11 1 32 7 46 15 14 8 37 14 51 15 15 0 32 7 39 15 7 8 22 15 34 15 11 0 41 14 66 30 25 16 52 30 61 30 9 0 22 7 29 15 7 8 20 15 30 15 10 0 23 7 30 15 7 8 19 15 26 15 19 0 64 26 152 85 40 28 81 55 91 60 10 6 25 18 35 27 9 10 25 23 34 30 10 7 33 33 52 58 19 25 49 62 68 84 19 21 40 53 48 71 7 19 18 36 24 40 5 3 10 21 10 38 0 18 7 43 16 55 23 33 23 236 0 280 -9 17 -16 37 -16 45 0 24 -157 177 -183 177 -8 0 -20 7 -27 15 -7 8 -27 15 -44 15 -17 0 -40 7 -50 15 -27 21 -126 19 -200 -2 -49 -15 -71 -30 -131 -88 -40 -38 -75 -79 -79 -90 -6 -20 -50 -47 -61 -37 -3 3 -5 17 -5 31 0 52 -163 201 -220 201 -11 0 -23 7 -26 15 -9 21 -201 22 -230 0z m217 -108 c20 -7 43 -17 50 -23 8 -5 33 -19 56 -30 30 -13 41 -25 40 -38 -2 -15 7 -22 36 -29 40 -10 47 -21 20 -31 -15 -6 -15 -8 -3 -16 9 -5 20 -5 28 2 14 12 32 -4 32 -29 0 -19 21 -16 35 4 11 15 15 15 30 3 15 -12 16 -12 13 5 -1 11 2 20 9 20 6 0 15 3 19 8 4 4 18 7 31 7 14 0 23 6 23 15 0 9 10 19 23 24 13 5 31 21 41 36 9 14 27 30 39 35 12 6 30 16 40 22 14 11 19 10 26 0 5 -9 20 -11 48 -6 57 9 151 -13 180 -42 20 -20 28 -23 39 -13 21 18 29 3 14 -26 -10 -19 -11 -28 -2 -37 9 -9 13 -7 18 5 3 9 13 17 21 17 12 0 14 -8 9 -35 -7 -35 -6 -36 34 -39 8 -1 16 -11 18 -24 2 -13 9 -25 16 -28 9 -3 13 -29 12 -84 -1 -62 -5 -84 -22 -107 -11 -15 -24 -36 -27 -47 -7 -18 -8 -18 -27 -1 -19 17 -20 17 -20 -1 0 -11 9 -26 20 -34 23 -17 27 -60 6 -60 -8 0 -18 5 -21 10 -3 6 -13 10 -22 10 -12 0 -15 -8 -10 -39 4 -33 1 -43 -19 -62 -13 -12 -24 -27 -24 -32 0 -5 -10 -20 -22 -32 -21 -22 -24 -22 -40 -8 -17 15 -18 15 -18 0 0 -9 -11 -19 -25 -23 -14 -3 -25 -13 -25 -23 0 -30 -39 -80 -67 -87 -64 -15 -121 -46 -133 -72 -12 -26 -12 -26 -26 -7 -15 20 -15 20 -30 1 -8 -11 -14 -23 -14 -28 0 -4 -11 -8 -25 -8 -14 0 -34 -9 -45 -20 -11 -11 -31 -20 -44 -20 -13 0 -27 -8 -30 -17 -5 -12 -9 -14 -18 -5 -18 18 -28 15 -28 -8 0 -23 -12 -25 -39 -8 -10 6 -27 8 -37 4 -18 -7 -17 -8 5 -25 21 -16 21 -19 6 -24 -9 -4 -25 -3 -35 3 -14 7 -21 5 -33 -13 -13 -19 -16 -20 -32 -7 -9 8 -21 24 -25 36 -7 16 -15 21 -29 17 -16 -4 -21 -1 -21 16 0 12 7 32 16 46 14 22 14 26 -1 49 -10 14 -21 26 -26 26 -5 0 -21 26 -37 58 -38 76 -80 142 -91 142 -5 0 -15 23 -22 50 -7 28 -16 50 -21 50 -4 0 -8 -4 -8 -10 0 -5 -4 -10 -10 -10 -5 0 -10 15 -10 33 0 24 -11 44 -45 81 -46 49 -52 62 -35 68 5 2 -4 30 -20 64 -32 68 -40 151 -22 239 14 69 30 101 58 114 13 6 24 15 24 20 0 37 172 56 251 28z m428 -93 c-17 -21 -31 -17 -17 5 7 11 16 17 20 14 5 -2 4 -11 -3 -19z"/> <path d="M8030 9816 c0 -8 5 -18 10 -21 6 -3 10 3 10 14 0 12 -4 21 -10 21 -5 0 -10 -6 -10 -14z"/> <path d="M7340 9375 c0 -8 5 -15 10 -15 6 0 10 7 10 15 0 8 -4 15 -10 15 -5 0 -10 -7 -10 -15z"/> <path d="M8240 9220 c0 -5 7 -10 15 -10 8 0 15 5 15 10 0 6 -7 10 -15 10 -8 0 -15 -4 -15 -10z"/> <path d="M8150 9095 c0 -8 7 -15 15 -15 8 0 15 7 15 15 0 8 -7 15 -15 15 -8 0 -15 -7 -15 -15z"/> <path d="M2233 9668 c-48 -23 -11 -86 42 -72 l25 6 -2 -438 -3 -439 -45 0 c-43 0 -45 -1 -45 -30 l0 -30 189 -3 c193 -3 205 0 206 35 0 7 -16 19 -35 27 l-35 15 2 213 3 213 108 3 107 3 -2 -223 -3 -223 -25 -1 c-48 -1 -51 -3 -48 -31 l3 -28 195 0 195 0 3 27 c2 19 -2 28 -17 33 -12 3 -26 3 -31 0 -6 -4 -17 -1 -25 5 -13 11 -15 77 -15 436 0 408 1 424 19 434 11 5 28 10 39 10 11 0 26 7 33 16 11 14 10 19 -7 33 -17 13 -47 16 -195 15 -97 0 -181 -4 -187 -8 -31 -19 0 -71 42 -71 20 0 21 -5 24 -187 l2 -187 -107 2 -108 2 0 185 0 185 27 3 c34 4 55 28 42 49 -7 11 -40 15 -164 17 -85 2 -162 5 -170 9 -8 3 -25 1 -37 -5z"/> <path d="M5647 9665 c-32 -16 -27 -36 15 -59 45 -25 88 -86 88 -124 0 -29 26 -106 47 -137 7 -11 13 -34 13 -51 0 -17 7 -37 15 -44 8 -7 15 -24 15 -39 0 -14 7 -35 15 -45 8 -11 15 -29 15 -40 0 -12 7 -34 15 -50 11 -22 15 -66 15 -186 0 -171 -2 -177 -56 -164 -42 11 -70 -29 -41 -58 10 -10 59 -12 221 -10 l207 3 -3 32 c-3 29 -6 32 -38 33 -19 1 -41 2 -48 3 -11 1 -13 38 -10 194 l3 192 33 59 c17 33 32 66 32 73 0 7 9 30 20 50 11 21 20 43 20 50 0 8 4 21 9 31 26 54 40 91 46 120 4 17 10 32 14 32 3 0 12 14 18 30 8 22 18 30 37 30 32 0 62 39 43 56 -16 17 -193 22 -208 7 -7 -7 -9 -23 -5 -38 5 -21 12 -25 34 -23 23 3 27 -1 26 -22 -2 -27 -17 -72 -45 -136 -11 -23 -19 -45 -19 -50 0 -5 -11 -31 -25 -58 -14 -27 -25 -60 -25 -72 0 -13 -4 -26 -10 -29 -5 -3 -10 -12 -10 -20 0 -8 -5 -26 -10 -41 -8 -20 -14 -24 -22 -16 -15 15 -38 81 -38 110 0 13 -6 36 -13 50 -27 53 -45 98 -67 167 -12 38 -26 75 -32 82 -18 22 -1 42 39 45 30 2 39 8 41 24 6 39 -32 52 -125 42 -50 -6 -110 -6 -153 -1 -49 7 -78 6 -93 -2z m377 -691 c9 -22 8 -24 -9 -18 -8 4 -15 12 -15 20 0 19 16 18 24 -2z"/> <path d="M3947 9646 c-12 -31 10 -55 53 -58 l40 -3 1 -423 c1 -233 -2 -426 -6 -430 -4 -4 -23 -7 -42 -7 -39 0 -60 -21 -50 -49 6 -14 30 -16 201 -16 l194 0 6 27 c8 29 -8 46 -35 39 -35 -8 -39 8 -40 164 -1 85 -1 161 0 168 1 10 21 13 84 11 97 -3 184 9 212 27 11 8 36 14 56 14 49 0 103 54 114 113 12 62 11 215 -2 270 -11 49 -46 97 -70 97 -8 0 -16 7 -19 15 -4 10 -20 15 -48 15 -22 1 -59 8 -81 16 -31 12 -99 17 -301 21 -239 5 -261 4 -267 -11z m546 -84 c27 -28 27 -28 27 -183 0 -157 -12 -223 -42 -240 -7 -4 -53 -11 -101 -15 -131 -10 -126 -20 -126 239 0 115 2 214 5 218 3 5 51 9 108 9 99 0 103 -1 129 -28z"/> <path d="M4803 9654 c-36 -16 10 -69 51 -58 l26 6 0 -98 c0 -55 3 -251 6 -436 4 -272 2 -338 -8 -339 -7 0 -29 -1 -48 -2 -32 -2 -35 -5 -38 -34 l-3 -33 195 0 c187 0 195 1 201 20 8 26 -11 50 -40 50 -13 0 -24 6 -26 13 -2 6 -4 82 -4 167 l0 155 65 -3 c76 -4 193 13 233 34 16 8 40 14 53 14 36 0 90 45 113 94 18 35 21 62 21 157 0 86 -4 120 -15 135 -8 10 -15 26 -15 34 0 17 -42 60 -58 60 -5 0 -15 7 -22 15 -7 9 -29 15 -54 15 -22 0 -54 7 -71 16 -25 14 -74 17 -290 20 -143 2 -266 1 -272 -2z m528 -87 c22 -18 28 -34 34 -92 9 -81 9 -78 -2 -212 -4 -56 -13 -107 -19 -113 -12 -12 -116 -29 -180 -30 -29 0 -44 5 -48 16 -8 21 -8 439 1 447 3 4 47 7 97 7 79 -1 94 -4 117 -23z"/> <path d="M3397 9621 c-10 -17 -17 -50 -17 -79 0 -29 -6 -56 -14 -64 -7 -8 -16 -36 -20 -63 -4 -28 -16 -75 -28 -105 -11 -30 -24 -84 -29 -120 -5 -35 -14 -69 -19 -74 -6 -6 -10 -26 -10 -45 0 -32 -13 -88 -46 -192 -8 -26 -14 -64 -14 -85 0 -51 -8 -62 -50 -66 -31 -3 -35 -6 -35 -33 l0 -30 122 -3 122 -3 7 27 c8 31 -8 45 -51 43 -68 -3 -66 -4 -59 59 3 31 13 70 20 86 8 16 14 39 14 51 0 43 29 55 128 55 50 0 102 -4 116 -10 24 -9 26 -14 26 -69 0 -33 5 -83 12 -111 13 -59 3 -74 -43 -65 -31 7 -53 -15 -44 -45 6 -19 14 -20 205 -20 185 0 199 1 205 19 10 33 -4 50 -48 53 l-42 3 -12 70 c-18 104 -28 147 -41 172 -7 12 -12 52 -12 90 0 65 -27 190 -49 232 -6 11 -11 46 -11 78 -1 35 -6 66 -15 77 -9 12 -15 42 -15 72 0 36 -7 64 -21 88 l-21 36 -97 0 c-96 0 -97 0 -114 -29z m55 -187 c18 -138 28 -196 38 -214 5 -10 10 -31 10 -45 0 -15 7 -42 16 -60 30 -63 21 -70 -90 -71 -111 -1 -120 5 -92 62 9 19 16 51 16 72 1 20 7 48 15 62 8 14 15 45 15 70 0 25 7 56 15 70 8 14 14 37 15 52 1 73 32 75 42 2z"/> <path d="M10348 8671 c-15 -9 -37 -29 -48 -44 -12 -15 -27 -27 -33 -27 -19 -1 -257 -244 -257 -263 0 -5 -13 -29 -30 -54 -16 -24 -30 -52 -30 -62 0 -10 -7 -24 -15 -31 -8 -7 -15 -21 -15 -32 0 -11 -5 -28 -11 -39 -27 -51 -10 -205 28 -250 7 -8 13 -20 13 -25 0 -13 93 -84 111 -84 8 -1 32 -7 53 -15 34 -12 44 -12 74 1 19 8 42 14 51 14 27 0 71 52 71 83 0 15 7 39 17 53 15 23 15 28 0 60 -10 19 -17 40 -17 48 0 17 -43 56 -62 56 -9 0 -21 7 -28 15 -7 8 -20 15 -29 15 -9 1 -27 10 -40 21 -20 16 -26 32 -28 77 -3 38 1 65 11 82 8 14 20 35 25 47 17 37 142 163 221 222 58 44 76 63 78 85 7 58 -53 84 -110 47z m-273 -639 c5 -12 15 -20 21 -18 13 5 48 -29 57 -56 4 -10 11 -18 17 -18 11 0 14 -37 3 -43 -5 -3 -22 -8 -39 -11 -23 -5 -36 -1 -57 16 -15 13 -27 30 -27 38 0 9 -9 21 -21 28 -20 13 -20 14 -3 33 13 15 15 22 6 31 -19 19 -14 30 11 26 12 -2 26 -13 32 -26z"/> <path d="M7490 8344 c-36 -7 -84 -13 -107 -14 -23 0 -45 -4 -48 -10 -3 -5 -30 -21 -58 -35 -93 -44 -288 -251 -348 -368 -3 -7 -11 -21 -17 -32 -7 -11 -15 -27 -18 -35 -3 -8 -12 -27 -20 -42 -8 -14 -14 -36 -14 -48 0 -12 -6 -34 -14 -48 -8 -15 -22 -54 -32 -87 -9 -33 -23 -74 -30 -92 -8 -17 -14 -44 -14 -61 0 -16 -7 -46 -15 -65 -9 -21 -15 -68 -15 -109 -1 -44 -6 -83 -15 -98 -10 -18 -14 -59 -15 -141 0 -85 -4 -120 -15 -135 -8 -10 -15 -25 -15 -32 0 -15 -13 -33 -58 -78 -65 -66 -76 -43 -73 151 6 478 5 598 -8 710 -8 66 -20 127 -28 136 -7 8 -13 27 -13 41 0 14 -7 28 -15 32 -8 3 -15 13 -15 23 0 20 -46 60 -113 98 -41 22 -57 25 -152 25 -105 0 -107 -1 -158 -35 -29 -19 -65 -51 -82 -71 -16 -20 -49 -45 -73 -56 l-43 -21 -57 60 c-49 52 -65 62 -112 73 -54 12 -122 10 -185 -5 -44 -11 -109 -67 -161 -141 -35 -48 -52 -64 -70 -64 -24 0 -24 0 -24 114 0 89 -3 116 -15 126 -8 7 -15 25 -15 41 0 15 -5 31 -11 34 -5 4 -14 18 -19 31 -13 33 -53 47 -123 42 -46 -4 -63 -10 -87 -33 -19 -18 -30 -39 -30 -56 0 -14 -7 -32 -15 -39 -9 -7 -15 -29 -15 -54 0 -23 -6 -50 -14 -61 -7 -11 -19 -72 -26 -134 -7 -63 -14 -121 -17 -128 -3 -7 -18 -13 -34 -13 -15 0 -40 -5 -54 -12 -37 -17 -43 -2 -37 87 3 50 0 89 -11 122 -8 26 -23 75 -32 108 -9 33 -21 67 -26 75 -5 8 -14 25 -19 38 -6 13 -17 31 -26 40 -9 9 -29 37 -45 62 -61 98 -147 140 -289 139 -47 0 -105 -4 -130 -10 -25 -5 -64 -12 -87 -16 -24 -3 -48 -12 -54 -19 -6 -8 -22 -14 -34 -14 -12 0 -28 -7 -35 -15 -7 -8 -17 -15 -22 -15 -15 0 -178 -155 -178 -169 0 -5 -20 -33 -45 -63 -43 -53 -88 -126 -121 -198 -9 -19 -25 -53 -35 -74 l-18 -40 -113 3 c-92 2 -115 5 -126 19 -7 9 -9 23 -5 32 4 8 9 63 11 122 3 86 0 112 -12 130 -9 12 -16 39 -16 59 0 63 -83 239 -113 239 -6 0 -19 8 -30 17 -28 26 -160 25 -206 -2 -44 -25 -100 -85 -101 -106 0 -9 -7 -22 -15 -29 -8 -7 -15 -18 -15 -25 0 -7 -7 -18 -15 -25 -12 -10 -15 -37 -15 -121 0 -103 1 -110 30 -152 27 -40 89 -97 105 -97 4 0 24 -13 45 -30 21 -17 45 -30 53 -30 9 0 30 -8 49 -17 58 -29 65 -31 102 -38 28 -6 36 -12 36 -29 0 -12 -5 -27 -12 -34 -15 -15 -37 -92 -45 -157 -3 -27 -12 -59 -19 -70 -8 -11 -14 -28 -14 -38 0 -19 -19 -68 -46 -119 -8 -14 -14 -34 -14 -45 0 -10 -7 -27 -15 -37 -8 -11 -15 -29 -15 -40 0 -11 -6 -27 -13 -35 -8 -9 -22 -38 -32 -66 -10 -27 -45 -85 -77 -128 -32 -43 -58 -81 -58 -85 0 -4 -19 -25 -41 -47 -22 -22 -53 -52 -67 -67 -15 -16 -36 -28 -49 -28 -18 0 -23 7 -29 38 -9 46 -30 99 -44 107 -5 3 -10 18 -10 32 0 13 -6 37 -14 51 -22 43 -37 93 -48 152 -5 30 -13 59 -19 64 -5 6 -9 36 -9 68 0 32 -6 75 -14 95 -8 21 -19 97 -24 168 -13 173 -27 227 -68 270 -29 31 -38 35 -85 35 -69 0 -109 -34 -109 -91 0 -21 -5 -50 -12 -66 -6 -15 -15 -53 -19 -83 -14 -104 -32 -195 -45 -233 -8 -20 -14 -48 -14 -61 0 -13 -7 -29 -15 -36 -8 -7 -15 -23 -15 -36 0 -13 -5 -24 -10 -24 -6 0 -15 -10 -20 -22 -38 -85 -138 -199 -199 -224 -41 -17 -45 -14 -59 65 -30 156 -35 202 -41 396 -4 133 -11 218 -19 232 -8 14 -12 73 -12 173 0 111 -4 160 -15 187 -8 19 -15 44 -15 54 0 10 -15 29 -33 43 -48 37 -127 36 -181 -2 -44 -30 -86 -100 -86 -143 0 -15 -6 -40 -14 -56 -25 -49 -55 -214 -63 -343 -5 -84 13 -275 28 -295 4 -5 10 -28 14 -50 4 -22 13 -50 21 -62 8 -12 14 -30 14 -39 0 -9 14 -36 30 -61 17 -24 30 -48 30 -54 0 -5 4 -9 10 -9 5 0 15 -11 22 -24 15 -29 100 -96 121 -96 8 0 20 -7 27 -15 18 -22 258 -22 266 0 4 8 13 15 20 15 17 0 103 61 104 74 0 4 13 25 30 46 16 21 30 41 30 46 0 4 8 25 18 46 14 31 22 38 42 36 20 -2 26 -10 31 -38 3 -19 11 -45 17 -57 7 -12 12 -40 12 -62 0 -22 5 -43 11 -46 5 -4 15 -17 20 -28 5 -12 18 -35 29 -52 11 -16 24 -40 29 -52 17 -37 134 -153 155 -153 11 0 28 -8 39 -17 16 -15 38 -18 131 -18 120 0 171 16 231 71 15 13 38 32 51 41 13 8 24 21 24 28 0 7 7 15 15 19 8 3 15 11 15 19 0 16 28 71 63 122 15 22 27 47 27 56 0 9 7 22 15 29 8 7 15 16 15 21 0 5 13 37 29 71 16 35 31 74 34 88 3 14 15 50 27 80 12 30 25 71 28 90 2 19 11 44 18 55 8 11 14 38 14 60 0 23 7 50 15 61 8 10 15 37 15 59 0 22 9 71 19 110 l18 70 112 1 111 2 -7 -27 c-10 -43 -21 -69 -32 -76 -6 -3 -11 -23 -11 -44 0 -20 -5 -42 -10 -47 -6 -6 -13 -35 -17 -65 -3 -30 -12 -66 -19 -81 -19 -36 -18 -171 1 -283 33 -190 50 -264 64 -278 6 -6 11 -20 11 -31 0 -21 68 -126 82 -126 4 0 8 -6 8 -14 0 -24 74 -74 126 -87 27 -7 69 -11 94 -11 83 3 215 24 235 38 11 8 27 14 36 14 9 0 19 7 23 15 3 8 14 15 24 15 11 0 25 7 32 15 7 8 17 15 22 15 18 0 165 119 193 156 16 22 37 47 47 57 25 25 118 170 146 229 13 26 27 50 33 53 5 4 9 19 9 35 0 16 6 33 13 37 14 9 47 77 47 97 0 8 6 19 14 25 8 7 16 33 19 59 6 55 29 147 40 158 4 4 7 17 7 28 0 15 17 31 56 54 31 17 61 32 67 32 9 0 12 -107 12 -422 0 -433 3 -476 41 -550 8 -14 14 -35 14 -45 0 -34 58 -67 117 -67 69 0 79 11 137 147 9 21 16 64 16 95 0 33 5 63 12 70 9 9 15 72 19 195 4 100 12 202 18 227 5 25 10 77 11 115 1 69 26 165 49 188 6 6 11 26 11 44 0 21 11 48 30 75 17 22 30 45 30 51 0 5 14 26 30 47 17 21 30 43 30 48 0 26 129 110 149 97 13 -7 21 -142 11 -177 -6 -17 -10 -102 -11 -187 0 -103 -4 -161 -12 -170 -8 -10 -13 -88 -15 -251 -3 -205 -1 -238 12 -249 9 -8 16 -19 16 -26 0 -7 15 -24 34 -39 31 -23 44 -26 113 -26 45 0 84 5 90 11 6 6 22 16 34 23 13 6 26 20 29 31 3 11 14 33 25 50 19 27 20 51 26 390 l6 360 37 55 c33 48 85 103 141 148 23 20 78 33 88 23 11 -11 3 -231 -18 -446 -8 -93 -18 -210 -22 -260 -7 -109 13 -309 33 -326 8 -6 14 -27 14 -46 0 -21 6 -36 15 -39 8 -4 15 -16 15 -28 0 -21 31 -56 60 -69 8 -4 33 -18 55 -32 37 -22 50 -24 165 -24 114 0 127 2 152 22 28 23 78 91 78 107 0 20 36 70 49 68 8 -2 30 -25 49 -53 19 -27 39 -51 43 -53 4 -2 23 -15 42 -30 40 -32 84 -54 154 -77 62 -20 197 -16 256 7 35 14 157 114 157 130 0 11 98 108 109 108 10 0 23 -24 60 -120 29 -73 159 -199 206 -200 17 0 39 -7 49 -15 28 -21 203 -20 230 0 11 8 31 15 44 15 61 0 222 167 222 230 0 52 36 70 45 23 3 -16 10 -44 15 -64 6 -20 10 -63 10 -96 0 -55 3 -62 36 -94 33 -32 40 -34 116 -39 87 -5 120 3 152 39 27 30 56 117 56 169 0 24 5 52 10 62 6 11 15 124 21 252 9 209 13 239 35 294 13 33 24 68 24 76 0 9 6 29 14 45 15 31 28 67 58 163 11 36 26 77 34 92 8 14 14 39 14 56 0 41 56 158 100 207 9 11 19 25 21 31 8 24 101 94 125 94 31 0 42 -25 21 -48 -13 -14 -17 -55 -23 -207 -3 -105 -10 -206 -16 -225 -5 -19 -14 -66 -19 -105 -5 -38 -13 -101 -19 -140 -5 -38 -9 -159 -9 -267 l-1 -197 35 -67 c42 -79 99 -136 174 -170 48 -22 69 -25 170 -25 93 0 123 4 152 19 46 24 129 93 129 108 0 6 11 19 25 28 14 10 30 27 35 39 6 12 14 29 18 37 29 51 42 84 42 105 0 12 7 28 15 35 8 7 15 22 15 34 1 11 7 32 15 46 8 14 14 45 15 68 0 24 6 58 14 75 16 36 36 185 36 269 0 58 -15 83 -42 73 -15 -6 -20 -14 -49 -80 -14 -32 -37 -141 -46 -217 -2 -26 -11 -52 -19 -59 -8 -6 -14 -29 -14 -50 0 -21 -4 -40 -9 -43 -5 -3 -18 -23 -29 -43 -47 -89 -58 -108 -69 -118 -6 -5 -20 -25 -31 -43 -10 -18 -43 -57 -72 -88 -45 -47 -57 -55 -84 -52 l-31 3 -3 189 c-2 132 1 193 9 202 13 15 33 297 45 614 l7 185 -33 80 c-37 88 -75 145 -97 145 -7 0 -16 6 -19 14 -3 8 -13 17 -22 20 -9 3 -24 10 -32 15 -34 21 -127 34 -160 22 -18 -6 -42 -11 -53 -11 -18 0 -61 -19 -122 -53 -24 -14 -95 -90 -95 -103 0 -5 -17 -25 -36 -44 -19 -19 -45 -52 -57 -73 -15 -27 -27 -37 -42 -35 -24 4 -31 39 -40 197 -3 57 -8 107 -11 113 -3 5 -23 20 -45 33 -29 19 -52 25 -94 25 -48 0 -60 -4 -90 -32 -19 -17 -35 -38 -35 -47 0 -9 -7 -25 -15 -35 -10 -13 -15 -43 -15 -83 0 -66 -21 -195 -46 -277 -7 -26 -14 -67 -14 -91 0 -23 -7 -59 -15 -78 -10 -24 -15 -69 -15 -130 0 -60 -4 -97 -12 -105 -8 -8 -14 -53 -16 -120 -3 -69 -9 -114 -18 -127 -8 -11 -14 -29 -14 -41 0 -12 -7 -27 -15 -34 -8 -7 -15 -21 -15 -31 0 -18 -66 -153 -130 -264 -40 -71 -116 -147 -143 -143 -18 2 -23 12 -29 52 -4 27 -12 54 -17 59 -16 16 -13 151 3 189 15 35 35 229 45 433 3 66 12 130 19 142 8 15 12 73 12 185 0 90 5 231 11 313 8 109 9 177 1 249 -6 54 -13 101 -16 103 -9 9 -94 16 -118 9 -30 -7 -70 -67 -84 -125 -7 -32 -18 -50 -35 -60 -34 -19 -59 -8 -59 24 0 64 -73 148 -137 158 -17 3 -40 10 -51 16 -26 14 -89 12 -172 -5z m-4364 -169 c18 -33 36 -67 39 -75 4 -8 13 -30 21 -48 10 -23 14 -74 14 -177 0 -123 -2 -145 -15 -145 -14 0 -105 39 -180 78 -31 15 -74 60 -75 76 0 5 -8 18 -17 29 -14 15 -18 37 -18 110 0 71 4 98 18 117 9 13 17 31 17 38 0 8 10 25 23 38 19 21 30 24 81 22 l60 -3 32 -60z m4394 50 c0 -8 -7 -15 -15 -15 -8 0 -15 7 -15 15 0 8 7 15 15 15 8 0 15 -7 15 -15z m-73 -18 c25 -27 41 -77 24 -77 -6 0 -11 11 -11 25 0 18 -5 25 -19 25 -30 0 -34 -17 -14 -51 18 -30 18 -31 -3 -48 -12 -9 -25 -27 -28 -39 -4 -13 -19 -30 -33 -39 -24 -16 -24 -17 -7 -30 17 -13 17 -15 3 -26 -32 -24 -71 -98 -65 -123 5 -17 2 -26 -8 -30 -10 -4 -15 -18 -13 -42 2 -33 -1 -37 -20 -35 -17 2 -23 -2 -23 -17 0 -11 5 -20 10 -20 15 0 12 -33 -5 -57 -13 -18 -13 -26 -3 -42 16 -25 4 -38 -18 -20 -16 13 -17 10 -11 -31 4 -32 -1 -70 -17 -130 -72 -263 -117 -554 -95 -615 10 -28 10 -37 -4 -58 -9 -14 -25 -28 -36 -32 -22 -7 -82 31 -159 100 -27 25 -54 45 -59 45 -21 0 -33 40 -24 82 5 24 12 89 16 146 4 56 11 105 16 108 5 3 9 29 9 58 0 37 5 58 16 67 13 11 15 26 11 76 -7 66 -3 74 19 46 12 -17 13 -16 14 4 0 12 -4 25 -10 28 -22 13 2 115 37 156 16 19 17 55 2 65 -8 5 -6 12 8 23 11 9 28 36 38 61 10 25 25 50 33 57 12 10 13 15 2 28 -19 23 3 44 26 24 15 -12 16 -10 10 26 -6 38 -4 41 29 64 19 13 35 27 35 32 0 5 7 9 15 9 8 0 15 9 15 20 0 11 8 23 18 26 9 3 30 12 46 19 26 12 27 14 10 24 -16 9 -17 12 -4 20 8 5 26 7 40 4 25 -5 27 -3 22 26 -4 26 -1 31 16 31 11 0 22 -6 25 -12 5 -17 37 8 37 28 0 8 6 14 14 14 7 0 19 7 26 15 16 20 21 19 47 -8z m-3051 -53 c35 -31 64 -62 64 -69 0 -7 7 -18 15 -25 8 -7 15 -20 15 -30 0 -10 7 -23 15 -30 8 -7 15 -25 15 -40 0 -15 6 -33 14 -39 8 -7 16 -43 20 -90 3 -43 11 -93 17 -111 9 -23 9 -34 0 -43 -6 -6 -11 -30 -11 -53 0 -23 -6 -46 -13 -52 -16 -13 -105 4 -125 24 -7 8 -18 14 -24 14 -23 0 -108 105 -143 178 -21 42 -44 89 -52 104 -8 16 -14 67 -15 137 l-2 111 40 34 c59 53 91 49 170 -20z m3293 -15 c22 -23 41 -47 41 -54 0 -7 7 -18 15 -25 8 -7 15 -23 15 -35 0 -12 7 -28 15 -35 9 -8 15 -30 15 -60 0 -30 -6 -52 -15 -60 -8 -7 -15 -24 -15 -38 0 -14 -6 -33 -13 -41 -8 -9 -22 -43 -32 -75 -10 -33 -24 -71 -31 -85 -8 -14 -14 -39 -14 -56 0 -16 -7 -39 -15 -49 -9 -12 -15 -42 -15 -74 0 -29 -5 -62 -11 -73 -10 -19 -17 -83 -38 -322 -6 -67 -14 -103 -25 -116 -9 -9 -16 -22 -16 -28 0 -16 -187 -203 -203 -203 -7 0 -23 -13 -35 -30 -32 -43 -65 -40 -86 8 -9 20 -21 45 -26 54 -15 27 -12 120 5 168 8 23 15 73 15 109 0 44 5 74 15 87 8 10 15 31 15 46 0 35 29 160 40 173 5 6 13 54 19 107 6 53 15 107 20 120 5 13 17 50 26 83 10 33 24 72 31 87 8 14 14 37 14 51 0 13 7 30 15 37 8 7 15 23 15 36 0 13 14 46 30 72 17 27 30 57 30 67 0 9 14 37 30 62 17 24 30 47 30 50 0 16 64 83 80 83 10 0 36 -19 59 -41z m359 -6 c2 -8 -6 -13 -22 -13 -25 0 -33 10 -19 24 10 10 36 3 41 -11z m-3978 -3 c0 -5 -9 -10 -19 -10 -11 0 -23 5 -26 10 -4 6 5 10 19 10 14 0 26 -4 26 -10z m-42 -30 c43 -11 49 -17 35 -40 -10 -15 -8 -21 10 -33 21 -15 21 -16 4 -29 -18 -13 -18 -16 -1 -57 14 -36 15 -46 4 -67 -11 -19 -11 -27 -1 -37 9 -9 13 -7 17 11 4 12 10 22 14 22 14 0 23 -41 11 -53 -18 -18 -13 -47 9 -47 12 0 22 -9 26 -24 8 -34 -2 -49 -26 -36 -25 13 -30 13 -30 -5 0 -8 -9 -15 -20 -15 -11 0 -20 4 -20 9 0 5 -14 19 -30 31 -24 17 -34 19 -45 10 -10 -8 -19 -8 -33 -1 -15 8 -21 7 -26 -4 -3 -8 -16 -15 -29 -15 -20 0 -23 -4 -19 -30 3 -18 0 -30 -7 -30 -6 0 -11 5 -11 10 0 6 -7 10 -15 10 -8 0 -15 -2 -15 -4 0 -2 -3 -11 -6 -20 -4 -11 -1 -16 10 -16 9 0 16 -5 16 -11 0 -6 -9 -9 -19 -6 -16 4 -22 -6 -39 -57 -11 -33 -28 -96 -36 -140 -9 -43 -21 -87 -27 -98 -6 -11 -8 -30 -5 -43 4 -17 0 -27 -18 -39 -21 -13 -24 -21 -19 -51 4 -25 2 -36 -9 -40 -21 -8 -23 -325 -2 -325 16 0 18 -11 5 -25 -5 -6 -11 -29 -14 -51 -4 -37 -3 -41 14 -37 16 5 19 0 19 -30 0 -23 -6 -37 -16 -41 -21 -8 -2 -33 29 -38 12 -2 22 -10 22 -18 0 -21 -36 -25 -47 -6 -5 9 -18 16 -28 16 -25 0 -60 29 -60 50 0 8 -9 39 -20 68 -11 29 -20 61 -20 71 0 10 -7 32 -15 47 -8 16 -15 40 -15 54 0 14 -7 34 -15 44 -19 26 -19 46 1 61 15 10 15 14 -1 44 -9 19 -13 40 -9 49 11 25 13 102 3 102 -5 0 -9 7 -9 15 0 8 5 15 11 15 6 0 8 11 4 28 -6 31 17 87 41 96 20 8 8 26 -17 26 -25 0 -24 12 1 28 24 15 26 57 3 66 -13 5 -14 9 -4 19 10 9 15 8 27 -7 20 -28 30 -11 15 29 -10 29 -10 38 5 61 17 25 17 27 0 40 -10 7 -15 18 -11 24 5 8 11 8 19 1 14 -12 56 40 95 117 12 23 26 42 31 42 6 0 10 11 10 24 0 22 58 109 89 132 8 6 11 16 7 22 -4 7 -1 12 8 12 8 0 23 10 33 23 10 13 26 26 36 30 9 3 17 13 17 21 0 23 43 66 60 60 8 -4 30 -10 48 -14z m3972 0 c0 -5 11 -10 24 -10 28 0 41 -14 29 -32 -4 -7 -9 -96 -10 -198 -2 -239 -16 -413 -34 -436 -5 -6 -8 -44 -7 -85 1 -112 -1 -136 -14 -151 -8 -8 -13 -41 -13 -83 0 -38 6 -80 13 -92 19 -33 15 -52 -13 -59 -14 -3 -25 -12 -25 -20 0 -7 -8 -18 -17 -23 -17 -10 -17 -10 -1 -11 25 0 32 -19 14 -39 -15 -16 -15 -20 -2 -30 12 -10 13 -17 4 -31 -9 -14 -7 -24 11 -48 19 -28 20 -32 5 -40 -15 -8 -15 -11 2 -38 10 -16 21 -31 25 -34 10 -8 29 -48 29 -60 0 -6 -10 -4 -25 6 -14 9 -25 25 -25 35 0 11 -5 19 -11 19 -8 0 -10 -12 -6 -35 l6 -35 -37 16 c-24 10 -38 11 -40 4 -5 -15 -23 -12 -20 3 2 8 -21 38 -49 67 -29 30 -53 61 -53 70 0 10 -16 34 -35 56 -84 94 -86 98 -62 107 32 12 60 165 58 311 -1 37 3 63 11 67 7 4 12 36 14 76 1 37 10 95 19 128 10 33 19 76 20 95 1 22 12 45 29 62 28 28 34 63 14 71 -9 4 -5 12 11 25 13 10 22 25 19 33 -3 8 4 34 15 58 18 40 31 129 30 203 0 15 3 25 7 23 4 -3 13 2 20 10 7 8 19 15 27 15 10 0 12 6 8 20 -5 16 -2 20 14 20 12 0 21 -4 21 -10z m772 -25 c0 -5 -5 -11 -11 -13 -6 -2 -11 4 -11 13 0 9 5 15 11 13 6 -2 11 -8 11 -13z m608 -5 c0 -5 7 -10 16 -10 22 0 100 -66 123 -104 11 -17 23 -58 28 -91 13 -93 -2 -572 -22 -695 -10 -61 -18 -174 -19 -269 -2 -152 -4 -166 -23 -178 -17 -12 -23 -10 -49 12 -16 14 -32 25 -36 25 -11 0 -38 61 -38 86 0 13 -4 25 -9 28 -4 3 -6 37 -3 76 3 48 1 74 -8 85 -8 10 -9 19 -3 28 6 6 11 35 11 63 1 53 25 273 42 384 6 36 13 162 17 280 5 192 4 217 -11 229 -9 7 -16 20 -16 27 0 8 -7 14 -15 14 -8 0 -15 5 -15 10 0 6 7 10 15 10 8 0 15 -4 15 -10z m-634 -37 c7 -10 14 -27 14 -39 0 -33 48 -119 84 -152 19 -17 37 -40 41 -51 7 -23 25 -27 43 -9 8 8 15 9 22 2 8 -8 6 -15 -4 -23 -12 -10 -13 -18 -6 -32 8 -14 6 -20 -9 -29 -11 -5 -28 -10 -38 -10 -16 0 -15 -2 4 -18 28 -21 26 -79 -2 -74 -13 3 -15 -1 -10 -18 4 -12 1 -27 -5 -35 -8 -9 -10 -28 -6 -49 5 -24 3 -35 -7 -39 -8 -3 -30 -56 -51 -119 -36 -114 -55 -219 -56 -315 0 -29 -4 -53 -10 -53 -6 0 -8 -33 -6 -82 3 -69 0 -88 -15 -109 -16 -23 -17 -28 -5 -38 11 -10 12 -19 4 -42 -8 -22 -7 -34 1 -42 18 -18 13 -37 -10 -37 -19 0 -20 -4 -15 -35 4 -22 3 -35 -4 -35 -5 0 -10 9 -10 20 0 21 -24 28 -35 10 -4 -6 -11 -8 -16 -4 -5 3 -7 9 -4 14 3 5 -11 14 -30 20 -37 12 -46 33 -20 48 10 5 13 15 9 25 -6 17 -7 16 -20 0 -17 -24 -37 -5 -38 39 -2 36 -17 49 -26 23 -4 -13 -10 -10 -29 15 -16 22 -20 35 -12 44 6 6 8 21 5 33 -3 11 -1 24 6 28 8 5 8 10 -1 21 -9 11 -3 26 30 75 23 33 39 64 36 70 -4 5 -8 29 -10 54 -3 33 0 45 10 45 22 0 25 13 13 59 -8 31 -8 45 1 54 6 6 11 23 11 38 0 14 9 38 21 53 18 23 18 27 5 32 -23 9 -19 33 7 44 12 5 17 9 10 9 -15 1 -35 59 -21 63 18 6 38 79 27 100 -7 14 -6 38 5 81 8 34 27 125 42 202 22 118 45 183 63 185 2 0 10 -8 17 -17z m-3641 -43 c4 -6 1 -18 -6 -26 -11 -13 -10 -18 4 -25 9 -6 17 -18 17 -28 0 -10 7 -32 15 -47 8 -16 15 -37 15 -48 0 -10 14 -34 30 -53 30 -34 39 -68 19 -75 -7 -2 -7 -12 1 -33 10 -26 9 -32 -10 -47 -12 -10 -17 -18 -11 -18 16 0 14 -31 -4 -50 -16 -17 -29 -79 -40 -187 -5 -47 -10 -60 -21 -56 -17 6 -17 -1 -3 -41 9 -26 7 -40 -14 -88 -24 -55 -25 -58 -7 -58 18 0 19 -6 13 -87 -3 -49 -11 -95 -18 -103 -22 -27 -26 -78 -7 -89 16 -9 16 -11 -1 -28 -9 -11 -17 -32 -17 -46 0 -22 -5 -27 -25 -27 -29 0 -33 -21 -9 -41 14 -11 18 -11 29 4 15 20 25 22 25 4 0 -17 -37 -57 -53 -57 -21 0 -50 66 -44 98 3 16 3 32 0 36 -4 3 -8 57 -10 119 -1 61 -5 134 -7 160 -3 26 -1 45 4 42 14 -8 24 15 11 28 -6 6 -11 47 -11 98 0 61 -4 89 -12 92 -10 3 -10 9 0 26 15 25 16 61 1 61 -6 0 -9 10 -7 23 2 18 9 22 33 20 27 -3 28 -2 8 7 -13 5 -23 18 -23 28 0 11 -7 25 -15 32 -17 14 -20 50 -5 50 6 0 10 5 10 10 0 6 -9 10 -20 10 -11 0 -20 3 -20 8 1 13 35 49 55 57 19 7 19 8 -4 14 -34 9 -37 29 -7 41 14 5 26 16 26 24 0 8 5 16 12 18 8 3 5 12 -10 28 -27 29 -27 36 -1 51 15 8 18 14 10 22 -14 14 -15 50 -1 42 6 -3 20 -3 32 1 19 6 19 7 5 16 -23 12 -21 45 2 53 10 3 21 15 24 25 5 21 32 27 42 10z m1232 -130 c15 -22 36 -42 46 -46 12 -4 17 -13 14 -24 -2 -9 0 -24 5 -33 22 -39 31 -203 32 -542 1 -355 1 -361 24 -398 12 -21 22 -44 22 -51 0 -7 11 -25 25 -40 30 -33 31 -42 6 -56 -25 -13 -61 -13 -61 0 0 6 -6 10 -13 10 -8 0 -24 12 -38 26 -13 14 -35 30 -48 35 -18 8 -21 13 -13 21 20 20 13 31 -13 24 -23 -6 -25 -4 -20 16 3 13 -1 40 -9 60 -26 61 -30 233 -11 436 25 270 34 504 19 522 -6 8 -16 30 -22 48 -10 29 -9 32 8 32 10 0 31 -17 47 -40z m-4762 -120 c6 -40 19 -222 35 -515 7 -110 18 -224 26 -252 19 -68 10 -107 -22 -99 -12 3 -26 2 -29 -4 -12 -19 -23 -10 -64 47 -27 38 -41 69 -41 89 0 19 -6 34 -15 38 -8 3 -15 18 -15 33 0 15 -10 43 -21 62 -19 31 -20 39 -8 73 10 31 10 43 0 62 -10 18 -12 55 -7 142 8 141 11 178 18 190 3 5 11 27 18 49 18 56 61 149 74 157 15 10 44 -30 51 -72z m4715 65 c0 -8 -4 -15 -10 -15 -5 0 -10 7 -10 15 0 8 5 15 10 15 6 0 10 -7 10 -15z m-550 -3 c0 -4 -5 -13 -12 -20 -18 -18 3 -14 38 7 l30 18 17 -38 c17 -40 42 -50 65 -27 9 9 12 8 12 -5 0 -10 -10 -21 -23 -26 -13 -5 -31 -21 -41 -36 -16 -25 -16 -28 -1 -52 15 -22 15 -26 1 -42 -9 -10 -16 -32 -16 -49 0 -17 -5 -34 -10 -37 -7 -4 -8 -41 -4 -108 12 -168 10 -293 -5 -310 -15 -19 -5 -41 15 -33 18 7 18 -3 -2 -45 -27 -59 -31 -64 -53 -62 -22 3 -29 -11 -11 -22 13 -8 13 -45 0 -45 -6 0 -13 7 -16 15 -4 8 -12 15 -20 15 -8 0 -14 -7 -14 -15 0 -8 -5 -15 -10 -15 -7 0 -8 13 -4 35 5 26 2 36 -9 41 -25 9 -27 43 -5 64 15 14 19 27 15 47 -3 18 0 34 10 46 14 14 14 17 2 17 -8 0 -20 -5 -27 -12 -21 -21 -26 1 -8 40 16 35 16 40 1 76 -9 21 -14 40 -11 43 3 3 19 1 35 -5 31 -11 45 1 15 12 -20 8 -11 55 14 74 15 12 11 12 -23 6 -38 -7 -39 -6 -25 12 8 10 23 26 34 35 19 16 19 17 -2 23 -25 8 -29 34 -8 42 15 6 12 70 -5 88 -5 5 -4 15 2 22 14 17 15 70 1 87 -9 11 -7 23 11 56 17 32 19 43 9 49 -18 12 -4 42 19 42 10 0 19 -4 19 -8z m-1580 -142 c0 -5 -7 -10 -15 -10 -8 0 -15 5 -15 10 0 6 7 10 15 10 8 0 15 -4 15 -10z m-185 -9 c7 -13 94 -71 104 -71 5 0 14 -7 21 -15 7 -8 20 -15 29 -15 9 0 34 -14 55 -30 30 -23 50 -30 83 -30 25 0 53 -5 64 -11 33 -17 129 -40 158 -37 25 3 26 1 29 -54 2 -37 -2 -68 -13 -87 -8 -17 -15 -42 -15 -56 0 -15 -7 -33 -15 -41 -8 -9 -15 -23 -15 -33 0 -21 -55 -124 -75 -141 -8 -7 -15 -20 -15 -30 0 -9 -13 -36 -30 -58 -16 -23 -30 -46 -30 -51 0 -19 -214 -241 -232 -241 -5 0 -27 -13 -50 -30 -22 -16 -47 -30 -53 -30 -7 0 -18 -6 -24 -14 -7 -8 -26 -18 -43 -21 -67 -15 -98 64 -133 338 -7 54 20 243 41 294 8 17 14 44 14 60 0 16 7 38 15 49 8 10 15 30 15 44 0 14 7 43 15 65 8 22 14 60 15 85 0 25 7 54 15 64 8 11 15 36 15 56 0 20 3 40 7 43 10 10 41 8 48 -2z m-1683 -206 c-12 -22 -27 -2 -18 22 5 12 10 13 17 6 7 -7 8 -17 1 -28z m22 -57 c9 -12 16 -40 16 -62 0 -22 7 -85 17 -139 12 -74 13 -104 5 -117 -9 -15 -7 -19 9 -23 14 -4 19 -14 19 -38 0 -18 9 -52 21 -76 20 -41 20 -45 5 -68 -14 -22 -15 -25 -1 -25 8 0 15 5 15 10 0 6 5 10 10 10 6 0 10 -7 10 -15 0 -8 -4 -15 -10 -15 -5 0 -10 -9 -10 -20 0 -11 -5 -20 -12 -20 -6 0 -9 -2 -6 -5 3 -3 17 -1 32 4 30 12 33 5 10 -20 -14 -16 -14 -18 5 -29 27 -14 26 -22 -5 -54 -21 -20 -23 -26 -10 -26 9 0 16 5 16 10 0 6 6 10 14 10 8 0 16 6 19 13 2 6 8 9 12 4 5 -4 3 -13 -3 -19 -17 -17 -15 -45 3 -52 17 -6 21 -56 5 -56 -6 0 -15 12 -20 26 -7 17 -15 24 -25 20 -21 -8 -45 3 -45 20 0 8 -9 14 -19 14 -20 0 -37 17 -28 26 3 3 13 7 23 8 26 4 30 26 5 26 -12 0 -31 10 -42 21 -18 18 -20 25 -10 40 9 15 8 19 -1 19 -7 0 -26 32 -43 71 -16 39 -35 74 -42 76 -7 3 -15 14 -18 24 -4 11 -18 30 -32 43 -25 24 -25 24 -10 72 33 103 57 214 52 241 -4 18 1 39 14 61 24 38 34 40 55 10z m1386 -273 c0 -8 -4 -15 -9 -15 -13 0 -22 16 -14 24 11 11 23 6 23 -9z"/> <path d="M3631 6692 c-14 -26 -7 -42 10 -25 6 6 9 19 7 29 -3 17 -5 17 -17 -4z"/> <path d="M6456 6702 c-13 -12 -5 -22 19 -22 14 0 25 4 25 9 0 10 -36 21 -44 13z"/> <path d="M5692 7691 c2 -7 7 -12 11 -12 12 1 9 15 -3 20 -7 2 -11 -2 -8 -8z"/> <path d="M2270 7341 c0 -11 5 -23 10 -26 6 -4 10 5 10 19 0 14 -4 26 -10 26 -5 0 -10 -9 -10 -19z"/> <path d="M10875 8301 c-64 -8 -84 -17 -153 -68 -43 -31 -112 -113 -112 -132 0 -5 -4 -11 -8 -13 -16 -7 -72 -110 -81 -149 -5 -23 -14 -46 -20 -52 -16 -16 -13 -83 4 -97 8 -7 15 -22 15 -34 0 -20 115 -146 134 -146 16 0 86 -80 86 -100 0 -11 -4 -20 -8 -20 -12 0 -62 -44 -62 -54 0 -5 -13 -24 -30 -43 -16 -18 -30 -42 -30 -53 0 -10 -6 -23 -13 -27 -21 -14 -75 -165 -82 -228 -17 -159 -5 -271 37 -362 15 -34 28 -68 28 -76 0 -8 7 -20 15 -27 8 -7 15 -19 15 -28 0 -17 106 -122 123 -122 6 0 19 -8 30 -17 17 -16 40 -18 171 -18 127 1 155 3 176 18 13 9 40 17 58 17 25 0 50 13 95 47 34 26 68 53 76 61 17 16 51 82 51 98 0 6 7 17 15 24 8 7 15 29 15 49 0 20 7 45 15 55 21 28 21 242 0 293 -8 19 -15 44 -15 53 0 10 -6 31 -14 47 -26 53 -46 104 -46 118 0 29 -166 225 -191 225 -16 0 -61 50 -57 62 3 7 30 19 59 27 30 7 65 17 79 22 14 5 59 13 100 18 41 5 93 14 115 20 22 6 76 17 120 26 44 9 88 20 97 26 10 5 38 9 62 9 62 0 76 7 76 41 0 38 -20 45 -73 25 -23 -9 -78 -19 -122 -22 -44 -4 -92 -13 -107 -20 -15 -8 -54 -14 -87 -14 -33 0 -80 -6 -103 -14 -24 -7 -79 -21 -123 -31 -44 -10 -89 -24 -100 -31 -26 -19 -89 -18 -105 1 -7 8 -17 15 -22 15 -20 0 -120 85 -153 131 -34 48 -35 52 -35 143 0 87 2 97 35 161 48 92 67 105 151 105 44 0 73 -5 83 -14 50 -45 69 -65 91 -95 63 -85 90 -94 90 -30 0 43 -46 127 -80 145 -109 56 -172 69 -285 55z m-179 -406 c4 -8 -1 -26 -10 -40 -20 -31 -14 -45 21 -45 19 0 24 -4 19 -16 -4 -10 13 -33 50 -70 31 -29 58 -54 60 -54 2 0 24 -20 48 -45 25 -25 52 -45 61 -45 9 0 20 -11 25 -25 7 -17 17 -25 34 -25 32 0 88 -53 80 -75 -3 -8 -1 -15 5 -15 7 0 28 -16 48 -35 20 -19 42 -35 49 -35 22 0 28 -22 10 -36 -10 -7 -13 -15 -7 -18 5 -4 12 -2 16 4 15 25 26 8 20 -30 -4 -26 -3 -40 4 -40 6 0 11 6 11 13 1 31 30 -31 30 -65 0 -32 3 -38 21 -38 19 0 20 -4 15 -33 -4 -21 -1 -40 9 -54 23 -32 19 -239 -4 -248 -14 -6 -14 -8 2 -20 18 -13 18 -14 0 -39 -10 -14 -26 -28 -36 -32 -12 -4 -16 -12 -12 -24 4 -13 -1 -22 -15 -30 -11 -6 -20 -15 -20 -21 0 -13 -52 -79 -62 -79 -5 0 -8 10 -8 23 0 12 -7 32 -15 44 -13 19 -13 23 6 48 18 22 20 30 10 51 -17 39 -14 54 14 54 28 0 29 3 14 32 -8 14 -8 23 0 31 14 14 15 87 1 87 -5 0 -10 -5 -10 -11 0 -5 -4 -7 -10 -4 -15 9 -12 52 5 69 19 19 19 24 -5 74 -11 22 -20 47 -20 55 0 8 -7 20 -15 27 -19 16 -19 59 0 66 21 9 8 24 -20 24 -32 0 -42 20 -20 37 11 7 13 13 7 13 -11 0 -72 55 -72 65 0 2 4 15 10 29 8 22 7 26 -9 26 -10 0 -30 14 -44 31 -20 24 -30 29 -47 24 -19 -6 -21 -4 -15 15 7 21 5 22 -29 16 -23 -4 -36 -3 -36 4 0 5 6 10 14 10 13 0 26 20 26 42 0 10 -17 8 -52 -7 -13 -5 -18 -2 -18 10 0 9 -19 35 -42 57 -39 37 -41 41 -24 53 17 13 17 14 -3 34 -12 12 -25 21 -30 21 -5 0 -27 19 -50 41 -45 46 -54 88 -24 121 20 22 32 23 39 3z m199 -492 c11 -21 29 -52 40 -68 11 -17 38 -67 59 -110 21 -44 45 -93 52 -108 20 -42 20 -334 -1 -374 -8 -15 -16 -39 -19 -53 -9 -44 -64 -120 -98 -134 -37 -16 -62 -9 -115 31 -35 27 -113 134 -113 155 0 6 -8 20 -17 31 -16 17 -18 41 -18 186 0 142 3 171 18 194 9 14 17 35 17 45 0 11 7 25 15 32 8 7 15 17 15 22 0 15 33 82 45 93 6 6 26 29 44 53 18 23 38 42 45 42 6 0 20 -17 31 -37z"/> <path d="M9350 6167 c-79 -26 -138 -71 -164 -124 -10 -21 -26 -51 -35 -68 -23 -43 -22 -265 1 -321 9 -21 26 -64 38 -94 21 -51 70 -128 130 -203 14 -18 36 -52 48 -77 13 -25 32 -58 42 -75 37 -58 60 -104 60 -122 0 -10 7 -29 16 -41 13 -19 15 -44 13 -130 l-4 -107 28 2 c16 1 48 11 71 22 23 12 54 21 68 21 15 0 41 8 60 17 65 33 83 40 111 47 15 3 27 11 27 16 0 6 10 10 23 10 13 0 32 7 43 15 10 8 26 15 35 15 9 0 22 7 29 15 7 8 26 15 42 15 16 0 31 6 34 15 4 8 13 15 21 15 8 0 32 14 53 30 21 17 45 30 53 30 9 0 20 6 24 13 4 8 15 17 23 21 101 48 270 213 319 311 12 23 28 48 36 55 8 7 15 24 15 39 0 14 6 46 14 71 33 102 38 130 32 157 -4 15 -10 45 -13 65 -3 21 -11 42 -19 49 -8 6 -14 18 -14 26 0 29 -103 153 -127 153 -8 0 -16 6 -19 14 -3 7 -22 20 -42 29 -20 8 -56 23 -80 33 -30 12 -69 17 -130 17 -75 0 -96 -4 -146 -27 -68 -32 -148 -108 -170 -160 -21 -49 -55 -47 -71 4 -28 90 -130 171 -275 216 -63 19 -124 16 -200 -9z m216 -98 c7 -5 16 -9 20 -8 23 4 34 -3 34 -20 0 -11 9 -22 19 -26 11 -3 41 -26 67 -50 36 -34 50 -42 60 -34 14 11 34 4 34 -11 0 -5 11 -21 24 -35 21 -22 28 -25 45 -15 12 6 33 9 49 8 21 -2 28 2 30 20 3 21 32 32 32 12 0 -5 7 -10 15 -10 19 0 19 14 1 30 -23 18 -8 38 27 36 28 -1 32 2 29 22 -2 15 2 22 13 22 9 0 30 7 47 16 30 16 101 20 178 10 27 -3 34 -8 33 -22 -1 -11 0 -13 3 -6 8 16 29 15 44 -3 7 -8 20 -15 30 -15 10 0 20 -6 23 -14 3 -8 16 -16 28 -18 18 -2 25 -12 31 -42 5 -22 17 -45 27 -53 11 -7 25 -29 31 -48 13 -40 19 -144 8 -151 -4 -2 -10 -25 -14 -49 -3 -25 -9 -45 -13 -45 -3 0 -12 -4 -19 -9 -12 -7 -12 -12 0 -30 9 -14 10 -25 3 -35 -6 -7 -22 -32 -37 -54 -19 -28 -33 -39 -43 -36 -10 4 -15 0 -15 -10 0 -23 -30 -66 -46 -66 -7 0 -17 -7 -22 -16 -6 -11 -17 -15 -31 -11 -17 4 -21 1 -21 -21 0 -20 -10 -34 -37 -52 -20 -14 -42 -29 -49 -35 -10 -7 -18 -4 -27 9 -15 21 -15 21 -53 -49 -7 -12 -24 -21 -43 -23 -18 -2 -35 -10 -37 -17 -3 -8 -18 -17 -34 -20 -16 -3 -35 -17 -44 -30 -21 -32 -50 -39 -80 -19 -25 16 -26 15 -35 -8 -5 -14 -26 -33 -47 -43 -45 -21 -162 -36 -186 -23 -20 10 -38 40 -38 63 0 9 -11 41 -25 71 -14 30 -25 65 -25 79 0 13 -8 28 -17 34 -15 8 -16 12 -5 22 17 18 15 32 -4 25 -24 -9 -45 12 -38 38 8 33 -12 75 -41 86 -14 5 -34 24 -43 42 -9 18 -31 47 -48 65 -42 43 -47 60 -23 66 17 5 19 9 9 26 -14 26 -24 27 -36 1 -7 -14 -13 -17 -24 -10 -12 7 -12 12 -2 22 18 18 15 46 -8 58 -15 8 -19 17 -15 30 4 11 -2 33 -12 51 -17 29 -17 31 0 44 12 9 15 15 7 20 -8 5 -9 26 -4 63 5 44 15 68 43 104 20 26 45 48 56 50 14 2 19 9 17 24 -2 18 5 23 50 32 57 11 156 6 174 -9z m134 -44 c0 -8 -4 -15 -10 -15 -5 0 -10 7 -10 15 0 8 5 15 10 15 6 0 10 -7 10 -15z"/> <path d="M10410 5920 c0 -5 10 -10 23 -10 18 0 19 2 7 10 -19 13 -30 13 -30 0z"/> <path d="M9765 5880 c3 -5 13 -10 21 -10 8 0 14 5 14 10 0 6 -9 10 -21 10 -11 0 -17 -4 -14 -10z"/> <path d="M10312 5349 c2 -6 8 -10 13 -10 5 0 11 4 13 10 2 6 -4 11 -13 11 -9 0 -15 -5 -13 -11z"/> <path d="M9942 5092 c-13 -10 -20 -21 -16 -25 12 -12 24 -8 24 8 0 8 7 15 15 15 8 0 15 5 15 10 0 15 -12 12 -38 -8z"/> <path d="M3554 6155 c-10 -8 -29 -15 -41 -15 -28 0 -128 -68 -175 -118 -34 -37 -78 -117 -78 -141 0 -22 -19 -9 -91 64 -41 41 -78 75 -83 75 -5 0 -17 6 -25 13 -31 25 -126 49 -177 45 -82 -8 -183 -52 -247 -108 -25 -22 -49 -40 -54 -40 -10 -1 -73 -86 -73 -100 0 -6 -7 -25 -16 -42 -23 -44 -23 -248 0 -283 9 -13 16 -33 16 -44 0 -11 4 -22 9 -25 4 -3 21 -31 37 -62 16 -31 39 -63 51 -71 13 -9 23 -21 23 -28 0 -16 93 -101 132 -121 15 -8 28 -19 28 -24 0 -6 4 -10 9 -10 5 0 36 -17 68 -38 70 -47 123 -75 183 -97 25 -10 57 -23 72 -31 14 -8 34 -14 45 -14 10 0 27 -7 37 -15 11 -8 28 -15 39 -15 10 0 31 -6 45 -14 45 -24 111 -46 138 -46 26 0 137 -33 166 -50 10 -6 40 -10 68 -10 45 0 50 2 50 23 0 12 -7 31 -15 41 -31 41 -15 179 30 267 8 15 15 42 15 60 0 20 11 45 30 69 17 21 30 44 30 52 0 8 5 19 11 25 13 13 28 39 64 110 14 29 30 55 36 58 5 4 9 17 9 30 0 13 4 26 9 29 5 3 19 38 31 78 28 93 30 231 5 291 -37 87 -57 127 -64 127 -4 0 -15 14 -24 30 -10 17 -24 30 -31 30 -6 0 -17 5 -23 11 -42 42 -227 65 -269 34z m206 -117 c25 -13 50 -33 56 -45 6 -13 18 -31 27 -41 10 -10 17 -23 17 -29 0 -6 7 -16 15 -23 9 -8 12 -22 8 -41 -4 -20 0 -35 12 -48 16 -18 16 -20 -4 -31 -17 -8 -21 -19 -19 -45 1 -25 -4 -39 -17 -50 -19 -14 -19 -16 -3 -25 19 -12 14 -38 -11 -58 -12 -10 -13 -16 -4 -31 10 -16 8 -22 -8 -37 -11 -10 -36 -51 -56 -91 -37 -75 -54 -96 -61 -75 -7 22 -19 12 -26 -19 -4 -23 -2 -35 11 -44 18 -13 10 -35 -13 -35 -9 0 -14 -11 -14 -32 0 -18 -11 -45 -26 -65 -16 -21 -24 -42 -21 -54 3 -12 -2 -23 -14 -29 -21 -12 -26 -45 -8 -56 6 -3 15 0 20 7 4 7 10 11 13 8 9 -9 -24 -49 -40 -49 -19 0 -18 -26 1 -34 23 -8 18 -20 -14 -34 -31 -13 -96 -8 -107 9 -3 5 -22 9 -42 9 -56 0 -82 10 -82 31 0 22 -11 24 -28 7 -9 -9 -16 -7 -32 7 -16 14 -22 15 -35 5 -12 -10 -15 -10 -15 4 0 9 -6 18 -12 20 -7 2 -40 12 -73 21 -33 10 -67 24 -76 31 -8 8 -21 14 -27 14 -17 0 -25 20 -12 35 6 8 7 16 2 19 -6 3 -15 -1 -22 -9 -18 -21 -53 -19 -68 5 -7 11 -21 20 -32 20 -11 0 -35 15 -55 34 -24 24 -41 33 -55 29 -23 -6 -25 0 -8 26 16 26 3 53 -24 49 -25 -4 -37 -28 -14 -28 9 0 16 -4 16 -10 0 -16 -15 -12 -34 9 -20 22 -14 61 10 61 8 0 14 5 14 10 0 15 -26 12 -39 -4 -16 -19 -61 -8 -61 15 0 29 -22 69 -38 69 -10 0 -12 7 -8 24 4 15 -1 31 -14 46 -13 15 -18 31 -14 45 3 13 1 26 -5 29 -6 4 -11 16 -11 26 0 10 -6 20 -12 23 -7 2 -5 3 5 2 21 -4 24 33 2 41 -21 9 -19 32 5 39 24 8 25 15 5 41 -19 26 -19 31 6 37 15 4 19 11 15 25 -5 14 0 24 17 35 13 8 43 34 66 56 30 29 49 40 62 36 12 -4 21 1 29 15 6 11 21 20 33 20 13 0 27 4 33 9 19 18 81 22 94 6 7 -9 29 -15 54 -15 51 0 87 -22 69 -41 -16 -16 -17 -49 -2 -49 7 0 17 7 23 15 9 12 20 8 70 -25 32 -22 68 -40 81 -40 15 0 44 20 80 55 31 30 60 55 65 55 6 0 10 6 10 14 0 8 15 16 38 19 29 5 41 14 56 42 23 42 56 49 48 10 -5 -29 15 -35 25 -7 15 41 35 52 97 52 44 0 75 -6 106 -22z m-320 -33 c0 -8 -7 -15 -15 -15 -26 0 -18 20 13 29 1 1 2 -6 2 -14z"/> <path d="M3377 5894 c-8 -8 1 -24 14 -24 5 0 9 7 9 15 0 15 -12 20 -23 9z"/> <path d="M2816 5352 c-3 -6 -1 -14 5 -17 15 -10 25 3 12 16 -7 7 -13 7 -17 1z"/> <path d="M3215 5080 c-11 -5 -15 -9 -8 -9 6 -1 18 -4 27 -7 11 -4 16 -1 16 10 0 18 -6 19 -35 6z"/> <path d="M5797 6013 c-4 -3 -7 -17 -7 -29 0 -24 13 -31 75 -36 53 -5 55 -15 55 -449 0 -442 3 -424 -67 -413 -30 4 -44 2 -56 -11 -20 -20 -21 -29 -4 -42 19 -15 633 -1 649 15 6 6 19 12 28 12 24 0 90 70 90 95 0 12 7 30 15 41 21 28 21 610 0 638 -8 11 -15 34 -15 51 0 28 -7 37 -59 69 -32 20 -70 36 -83 36 -12 0 -32 7 -42 15 -16 12 -69 15 -296 15 -152 0 -280 -3 -283 -7z m515 -75 c15 -5 30 -18 32 -27 3 -9 10 -86 16 -171 20 -286 6 -596 -29 -631 -11 -12 -42 -18 -103 -23 l-88 -6 0 428 c0 236 2 431 5 434 10 10 139 7 167 -4z m-242 -43 c0 -3 -7 -17 -16 -30 -26 -40 -83 -31 -68 10 5 11 15 15 31 12 13 -2 26 0 29 4 6 10 24 12 24 4z"/> <path d="M6929 5999 c-10 -10 -16 -25 -13 -34 4 -8 1 -21 -5 -29 -13 -15 -46 -139 -56 -212 -4 -27 -11 -53 -15 -59 -4 -5 -17 -56 -29 -113 -11 -56 -25 -111 -31 -122 -5 -10 -10 -36 -10 -57 0 -22 -7 -48 -15 -59 -8 -10 -15 -37 -15 -59 0 -22 -7 -53 -15 -69 -8 -15 -15 -41 -15 -57 0 -20 -6 -31 -17 -35 -43 -12 -68 -31 -68 -49 0 -19 8 -20 122 -21 139 -1 152 3 135 41 -11 23 -17 26 -60 23 l-47 -3 1 53 c1 29 7 58 12 65 6 7 14 32 18 55 11 68 16 71 133 73 115 2 131 -6 131 -63 0 -15 7 -45 16 -67 8 -21 14 -56 12 -77 l-3 -39 -42 3 c-38 2 -43 0 -49 -23 -4 -14 -4 -29 0 -32 11 -12 417 -9 427 3 5 6 2 19 -8 33 -12 18 -22 22 -45 17 -52 -10 -68 7 -68 74 0 33 -6 79 -14 102 -7 24 -21 86 -30 138 -10 52 -22 109 -28 125 -6 17 -13 59 -16 95 -2 35 -10 73 -18 84 -8 11 -14 37 -14 57 0 20 -7 56 -15 79 -8 23 -15 60 -15 81 0 25 -7 46 -22 63 -20 21 -33 25 -107 29 -72 3 -87 1 -102 -14z m45 -203 c7 -40 28 -181 35 -246 4 -36 13 -75 20 -88 13 -24 12 -79 -1 -74 -5 1 -49 2 -99 2 l-91 0 6 28 c4 15 13 63 22 107 8 44 24 114 34 157 11 42 20 87 20 100 0 47 46 59 54 14z"/> <path d="M7460 5990 c0 -25 4 -30 23 -30 28 0 67 -38 67 -66 0 -11 7 -29 15 -40 8 -10 15 -28 15 -39 0 -11 7 -29 15 -39 8 -11 15 -29 15 -41 0 -12 7 -30 15 -41 8 -10 15 -35 15 -55 0 -20 6 -42 14 -48 7 -6 16 -27 19 -47 3 -20 15 -54 26 -77 18 -36 20 -64 22 -206 1 -176 -2 -187 -49 -176 -37 9 -62 -3 -62 -31 0 -13 5 -24 10 -25 6 0 102 -1 215 -1 245 0 225 -1 225 15 0 26 -36 48 -64 41 -52 -13 -56 2 -56 192 0 99 4 175 10 179 11 7 80 147 80 163 0 7 9 29 20 49 11 21 20 43 20 49 0 10 20 59 41 96 5 10 9 23 9 28 0 23 40 98 56 104 8 3 26 6 39 6 27 0 39 24 25 51 -10 17 -22 19 -111 19 -108 0 -117 -5 -105 -55 5 -21 10 -24 36 -18 25 4 30 2 30 -13 0 -11 -7 -28 -15 -38 -8 -11 -15 -28 -15 -38 0 -16 -20 -61 -56 -130 -8 -14 -14 -33 -14 -42 0 -9 -11 -39 -25 -66 -14 -27 -25 -60 -25 -74 0 -33 -17 -42 -41 -20 -12 11 -19 30 -19 54 0 20 -7 45 -15 56 -8 10 -15 31 -15 45 0 14 -7 34 -15 45 -8 10 -15 31 -15 45 0 15 -7 32 -15 39 -8 7 -15 27 -15 44 0 18 -7 41 -15 52 -26 34 -19 52 23 56 32 3 37 7 40 31 l3 27 -190 0 -191 0 0 -30z"/> </g> </svg>